<svg xmlns="http://www.w3.org/2000/svg" xmlns:xlink="http://www.w3.org/1999/xlink" width="48" height="48" viewBox="0 0 48 48">
  <defs>
    <clipPath id="clip-path">
      <rect id="Rectangle_14" data-name="Rectangle 14" width="48" height="48" transform="translate(-0.191 -0.191)" fill="#fff" stroke="#707070" stroke-width="1"/>
    </clipPath>
  </defs>
  <g id="Compulsory_Road_Signs" data-name="Compulsory Road Signs" transform="translate(0.191 0.191)" clip-path="url(#clip-path)">
    <g id="Group_12" data-name="Group 12" transform="translate(-0.018 -0.018)">
      <circle id="Ellipse_7" data-name="Ellipse 7" cx="19.971" cy="19.971" r="19.971" transform="translate(3.856 3.856)" fill="#fafafa"/>
      <path id="Path_134" data-name="Path 134" d="M28.913,13H18.083A1.083,1.083,0,0,0,17,14.083V37.91a1.083,1.083,0,0,0,1.083,1.083h4.332A1.083,1.083,0,0,0,23.5,37.91V30.329h5.415a8.664,8.664,0,1,0,0-17.329Zm0,10.83H23.5V19.5h5.415a2.166,2.166,0,0,1,0,4.332Z" transform="translate(-0.754 -1.087)" fill="#030303"/>
      <path id="Path_135" data-name="Path 135" d="M25.827,2A23.827,23.827,0,1,0,49.654,25.827,23.827,23.827,0,0,0,25.827,2Zm0,42.239A18.412,18.412,0,0,1,10.718,15.321c1.776,1.765,23.827,23.827,25.614,25.614A18.282,18.282,0,0,1,25.827,44.239Zm15.163-7.906L15.321,10.718A18.412,18.412,0,0,1,40.989,36.332Z" transform="translate(-2 -2)" fill="#c00"/>
    </g>
  </g>
</svg>
