<svg xmlns="http://www.w3.org/2000/svg" xmlns:xlink="http://www.w3.org/1999/xlink" width="48" height="48" viewBox="0 0 48 48">
  <defs>
    <clipPath id="clip-path">
      <rect id="Rectangle_19" data-name="Rectangle 19" width="48" height="48" transform="translate(-0.191 -0.191)" fill="#fff" stroke="#707070" stroke-width="1"/>
    </clipPath>
  </defs>
  <g id="Construction_Road_Signs" data-name="Construction Road Signs" transform="translate(0.191 0.191)" clip-path="url(#clip-path)">
    <g id="Layer_2" data-name="Layer 2" transform="translate(-0.018 2.409)">
      <path id="Path_153" data-name="Path 153" d="M98.147,98.766a1.811,1.811,0,0,0-3.137,0L76.958,130.032a1.811,1.811,0,0,0,1.569,2.716h36.1a1.811,1.811,0,0,0,1.569-2.716Z" transform="translate(-72.752 -93.905)" fill="#ffe08d"/>
      <path id="Path_154" data-name="Path 154" d="M89.065,97.52,71.013,66.253a5.766,5.766,0,0,0-9.987,0L42.974,97.52a5.766,5.766,0,0,0,4.993,8.649h36.1a5.766,5.766,0,0,0,4.993-8.649Zm-3.425,3.788a1.781,1.781,0,0,1-1.569.906h-36.1A1.811,1.811,0,0,1,46.4,99.5L64.451,68.23a1.811,1.811,0,0,1,3.137,0L85.64,99.5A1.78,1.78,0,0,1,85.64,101.308Z" transform="translate(-42.192 -63.37)" fill="#ff7a88"/>
      <g id="Group_18" data-name="Group 18" transform="translate(15.001 15.632)">
        <circle id="Ellipse_8" data-name="Ellipse 8" cx="2.017" cy="2.017" r="2.017" transform="translate(11.18 3.98) rotate(-80.68)" fill="#6c6767"/>
        <path id="Path_155" data-name="Path 155" d="M186.484,227.341a1.162,1.162,0,0,0-1.343,1.293s-1.927.048-2.416,1.378h15.4s-.1-1.556-2.274-1.483a1.177,1.177,0,0,0-.854-.878,2.622,2.622,0,0,0-2.912-1.785s-.328-2.166-2.744-1.08l-6.44-5.173s2.195-3.984,2.415-4.448.342-.854-.268-1.806-2.172-3.026-2.269-3.147a1.633,1.633,0,0,0-1.147-.292h-4.637a1.183,1.183,0,0,0-1.269.928c-.22.9-.659,3.044-.659,3.044l-.732-.586s-.631-.386-.947.17c-.273.477.241.886.313.96s1.073.928,1.073.928a.823.823,0,0,0,.634.854,7.317,7.317,0,0,0-.683.561,1.443,1.443,0,0,0-.439,1.147c.024.707,0,5.466,0,5.466s-1.123,4.222-1.22,4.734-.073,1.538.757,1.733a1.424,1.424,0,0,0,1.708-1.172c.22-.83,1.44-5.637,1.44-5.637l-.007-3.626,2.959,3.6s-2.2,4.588-2.342,4.905-.634,1.52.415,1.968a1.4,1.4,0,0,0,1.782-.8s2.684-5,2.831-5.344a1.5,1.5,0,0,0-.134-1.782c-.647-.659-.571-.611-.571-.611l.238-.412,6.241,5.06a2.082,2.082,0,0,0-1.9,1.332Zm-8.831-12.826.409-2.192h2.18Z" transform="translate(-173.024 -208.749)" fill="#6c6767"/>
      </g>
    </g>
  </g>
</svg>
