<svg xmlns="http://www.w3.org/2000/svg" width="17.502" height="15.666" viewBox="0 0 17.502 15.666">
  <g id="Group_23" data-name="Group 23" transform="translate(-299.139 -714.968)">
    <path id="Path_13" data-name="Path 13" d="M-222.534-122.841a3.153,3.153,0,0,1,3.149,3.149c0,2-2.513,4.4-2.8,4.671l-.35.327-.35-.327c-.286-.268-2.8-2.671-2.8-4.671A3.153,3.153,0,0,1-222.534-122.841Zm0,6.723c.808-.838,2.124-2.442,2.124-3.574a2.126,2.126,0,0,0-2.124-2.124,2.126,2.126,0,0,0-2.124,2.124C-224.658-118.56-223.342-116.956-222.534-116.118Z" transform="translate(524.822 845.329)" fill="#b8b8b8"/>
    <path id="Path_14" data-name="Path 14" d="M-58.464-39.741a1.02,1.02,0,0,1,1.019,1.019A1.02,1.02,0,0,1-58.464-37.7a1.02,1.02,0,0,1-1.019-1.019A1.02,1.02,0,0,1-58.464-39.741Z" transform="translate(360.752 764.36)" fill="#b8b8b8"/>
    <path id="Path_15" data-name="Path 15" d="M-222.534-122.841a3.153,3.153,0,0,1,3.149,3.149c0,2-2.513,4.4-2.8,4.671l-.35.327-.35-.327c-.286-.268-2.8-2.671-2.8-4.671A3.153,3.153,0,0,1-222.534-122.841Zm0,6.723c.808-.838,2.124-2.442,2.124-3.574a2.126,2.126,0,0,0-2.124-2.124,2.126,2.126,0,0,0-2.124,2.124C-224.658-118.56-223.342-116.956-222.534-116.118Z" transform="translate(536.027 837.809)" fill="#b8b8b8"/>
    <path id="Path_16" data-name="Path 16" d="M-58.464-39.741a1.02,1.02,0,0,1,1.019,1.019A1.02,1.02,0,0,1-58.464-37.7a1.02,1.02,0,0,1-1.019-1.019A1.02,1.02,0,0,1-58.464-39.741Z" transform="translate(371.956 756.84)" fill="#b8b8b8"/>
    <path id="Path_17" data-name="Path 17" d="M7.273-304.806H0v-1.025H7.273A1.369,1.369,0,0,0,8.64-307.2a1.369,1.369,0,0,0-1.367-1.367H4.406a2.4,2.4,0,0,1-2.393-2.393,2.4,2.4,0,0,1,2.393-2.393H7.1v1.025h-2.7a1.369,1.369,0,0,0-1.367,1.367,1.369,1.369,0,0,0,1.367,1.367H7.273A2.4,2.4,0,0,1,9.666-307.2,2.4,2.4,0,0,1,7.273-304.806Z" transform="translate(304.339 1035.252)" fill="#b8b8b8"/>
  </g>
</svg>
