<svg id="Group_3" data-name="Group 3" xmlns="http://www.w3.org/2000/svg" xmlns:xlink="http://www.w3.org/1999/xlink" width="18.215" height="18.896" viewBox="0 0 18.215 18.896">
  <defs>
    <clipPath id="clip-path">
      <rect id="Rectangle_13" data-name="Rectangle 13" width="18.215" height="18.896" fill="#007aff"/>
    </clipPath>
  </defs>
  <g id="Group_2" data-name="Group 2" clip-path="url(#clip-path)">
    <path id="Path_95" data-name="Path 95" d="M125.612,18.9a.277.277,0,0,1-.277-.277V17.145a.277.277,0,0,1,.555,0v1.473a.277.277,0,0,1-.277.277m-1.1,0a.277.277,0,0,1-.277-.277V17.145a.277.277,0,0,1,.555,0v1.473a.277.277,0,0,1-.277.277m-6.5,0a.277.277,0,0,1-.277-.277v-2.27a.277.277,0,1,1,.555,0v2.27a.277.277,0,0,1-.277.277m-1.1,0a.277.277,0,0,1-.277-.277v-2.27a.277.277,0,0,1,.555,0v2.27a.277.277,0,0,1-.277.277M126,8.219a.277.277,0,0,1-.224-.441,4.577,4.577,0,0,0-3.09-7.226.277.277,0,1,1,.073-.55,5.132,5.132,0,0,1,3.466,8.1.277.277,0,0,1-.225.114m-8.544-1.361a.278.278,0,0,1-.264-.192A5.132,5.132,0,0,1,121.388,0a.277.277,0,0,1,.073.55,4.579,4.579,0,0,0-3.744,5.942.278.278,0,0,1-.264.363" transform="translate(-112.329 0)" fill="#007aff"/>
    <path id="Path_96" data-name="Path 96" d="M5.123,120.194a5.131,5.131,0,1,1,4.494-7.626.277.277,0,1,1-.485.269A4.576,4.576,0,1,0,8.5,118.16a.277.277,0,1,1,.409.375,5.108,5.108,0,0,1-2.515,1.5,5.165,5.165,0,0,1-1.269.159m0-1.217a3.886,3.886,0,0,1-1.408-.265.277.277,0,0,1-.138-.4l3.67-6.161a.277.277,0,0,1,.418-.07,3.886,3.886,0,0,1,1.213,1.858.277.277,0,0,1-.532.158,3.331,3.331,0,0,0-.8-1.367L4.235,118.3a3.363,3.363,0,0,0,3.6-1.236.277.277,0,0,1,.446.331,3.925,3.925,0,0,1-3.148,1.582m-2.353-.868a.277.277,0,0,1-.18-.066,3.915,3.915,0,0,1,3.95-6.632.277.277,0,0,1,.138.4L4.2,115.986a.277.277,0,0,1-.477-.284l2.31-3.879a3.361,3.361,0,0,0-3.317,5.569l.344-.577a.277.277,0,1,1,.477.284l-.52.873a.278.278,0,0,1-.238.136m9.591-8.318H7.119a.426.426,0,0,1-.425-.425V107.98a.426.426,0,0,1,.425-.425h.914a.277.277,0,0,1,0,.555H7.249v1.126h4.988V108.11H9.328a.277.277,0,1,1,0-.555h3.038a.426.426,0,0,1,.425.425v1.385a.426.426,0,0,1-.425.425m0-1.681h0Z" transform="translate(0 -103.586)" fill="#007aff"/>
    <path id="Path_97" data-name="Path 97" d="M204.318,218.124h-4.836a.648.648,0,0,1-.561-.324l-2.418-4.187a.648.648,0,0,1,0-.648l2.418-4.188a.649.649,0,0,1,.561-.324h4.836a.649.649,0,0,1,.561.324l.417.723a.277.277,0,0,1-.481.277l-.417-.723a.092.092,0,0,0-.08-.046h-4.836a.092.092,0,0,0-.08.046l-2.418,4.188a.092.092,0,0,0,0,.092l2.418,4.188a.092.092,0,0,0,.08.046h4.836a.092.092,0,0,0,.08-.046l2.418-4.188a.092.092,0,0,0,0-.092l-1.353-2.344a.277.277,0,0,1,.48-.277l1.353,2.344a.648.648,0,0,1,0,.648l-2.418,4.188a.647.647,0,0,1-.56.324" transform="translate(-189.167 -200.76)" fill="#007aff"/>
    <path id="Path_98" data-name="Path 98" d="M244.889,310.462a.277.277,0,0,1-.277-.277v-1.757a.277.277,0,0,1,.277-.277h.488a.774.774,0,1,1,0,1.548h-.211v.487a.277.277,0,0,1-.277.277m.277-1.319h.211a.219.219,0,1,0,0-.438h-.211Zm-4.15,1.319a.277.277,0,0,1-.277-.277V308.7h-.206a.277.277,0,0,1,0-.555h.97a.277.277,0,1,1,0,.555h-.21v1.48a.277.277,0,0,1-.277.277m-1.842,0a1.1,1.1,0,0,1-.818-.352.277.277,0,0,1,.411-.373.553.553,0,0,0,.407.169.226.226,0,0,0,.236-.158c.015-.092-.116-.148-.173-.167l-.027-.009a2.4,2.4,0,0,1-.543-.227.611.611,0,0,1-.277-.606.675.675,0,0,1,.488-.551,1.066,1.066,0,0,1,.946.206.277.277,0,0,1-.355.426.527.527,0,0,0-.43-.1c-.077.023-.095.07-.1.1a.061.061,0,0,0,.025.062,2.107,2.107,0,0,0,.425.17l.027.009a.708.708,0,0,1,.542.783.772.772,0,0,1-.784.622" transform="translate(-229.49 -296.777)" fill="#007aff"/>
    <path id="Path_99" data-name="Path 99" d="M337.093,310.462a1.156,1.156,0,1,1,1.156-1.156,1.157,1.157,0,0,1-1.156,1.156m0-1.757a.6.6,0,1,0,.6.6.6.6,0,0,0-.6-.6" transform="translate(-323.539 -296.777)" fill="#007aff"/>
  </g>
</svg>
