<svg xmlns="http://www.w3.org/2000/svg" width="9.667" height="10.8" viewBox="0 0 9.667 10.8">
  <g id="Group_65" data-name="Group 65" transform="translate(-24.165)">
    <path id="Path_29" data-name="Path 29" d="M29,5.608a2.8,2.8,0,1,0-2.8-2.8A2.812,2.812,0,0,0,29,5.608Zm4.812,2.241a2.614,2.614,0,0,0-.282-.514,3.485,3.485,0,0,0-2.412-1.518.516.516,0,0,0-.355.086,2.989,2.989,0,0,1-3.527,0,.459.459,0,0,0-.355-.086,3.46,3.46,0,0,0-2.412,1.518,3.014,3.014,0,0,0-.282.514.26.26,0,0,0,.012.233,4.885,4.885,0,0,0,.331.49,4.653,4.653,0,0,0,.563.637,7.34,7.34,0,0,0,.563.49,5.584,5.584,0,0,0,6.661,0,5.384,5.384,0,0,0,.563-.49,5.654,5.654,0,0,0,.563-.637,4.293,4.293,0,0,0,.331-.49A.209.209,0,0,0,33.811,7.849Z" fill="#1776ba"/>
  </g>
</svg>
