<svg xmlns="http://www.w3.org/2000/svg" width="17.422" height="17.424" viewBox="0 0 17.422 17.424">
  <g id="Group_2" data-name="Group 2" transform="translate(0)">
    <path id="Path_2" data-name="Path 2" d="M16.954,7.578h0L9.845.47a1.6,1.6,0,0,0-2.268,0l-7.1,7.1-.007.007a1.6,1.6,0,0,0,1.067,2.733l.049,0h.283v5.231a1.879,1.879,0,0,0,1.877,1.877H6.524a.51.51,0,0,0,.51-.51v-4.1a.857.857,0,0,1,.857-.856h1.64a.857.857,0,0,1,.856.856v4.1a.51.51,0,0,0,.51.51h2.781a1.879,1.879,0,0,0,1.877-1.877V10.316h.263a1.6,1.6,0,0,0,1.135-2.738Zm0,0" transform="translate(0 0)" fill="#1776ba"/>
  </g>
</svg>
