<svg xmlns="http://www.w3.org/2000/svg" width="30" height="30" viewBox="0 0 30 30">
  <g id="Group_75" data-name="Group 75" transform="translate(0.19 0.191)">
    <circle id="Ellipse_16" data-name="Ellipse 16" cx="15" cy="15" r="15" transform="translate(-0.19 -0.191)" fill="#1d81ce"/>
    <path id="Path_33" data-name="Path 33" d="M488.914,710.591c-3.162,0-6.8-5.518-7.924-9.315-.745-2.539-.464-4.371.794-5.189a.042.042,0,0,1,.024-.012l1.587-.928a1.147,1.147,0,0,1,.574-.146,1.133,1.133,0,0,1,.977.562l1.587,2.759a1.128,1.128,0,0,1-.415,1.551l-1.16.671c-.073.037-.159.33.024.989.464,1.734,2.051,3.834,2.71,3.834a.053.053,0,0,0,.037-.012l1.172-.672a1.118,1.118,0,0,1,1.551.415l1.587,2.747a1.121,1.121,0,0,1,.11.867,1.1,1.1,0,0,1-.525.684l-1.6.928H490A2.206,2.206,0,0,1,488.914,710.591Zm3.724-4.847a1.627,1.627,0,0,1-1.148-.476l-5.03-5.03a1.64,1.64,0,0,0,.5-2.161l-.574-.989h13.454a1.579,1.579,0,0,1,1,.366.505.505,0,0,1,.183.354.517.517,0,0,1-.146.366l-7.093,7.093A1.606,1.606,0,0,1,492.638,705.744Zm7.2,2.759h-7.167a1.569,1.569,0,0,0-.208-.9l-1-1.721a2.1,2.1,0,0,0,2.662-.269l2.478-2.466,4.273,4.273a.517.517,0,0,1,.146.366.53.53,0,0,1-.183.354A1.578,1.578,0,0,1,499.841,708.5Zm-12.563-3.968,1.392-1.392.9.9a.338.338,0,0,0-.11-.012,1.569,1.569,0,0,0-.806.22l-1.013.586A1.931,1.931,0,0,1,487.278,704.535Zm-1.258-4.053,2.307,2.307-1.38,1.392a8.829,8.829,0,0,1-.965-1.453,6.329,6.329,0,0,1-.537-1.331,2.769,2.769,0,0,1-.085-.525Zm10.927,2.307,4.273-4.273a.964.964,0,0,0,.147-.183,1.332,1.332,0,0,1,.037.317v8.278a1.363,1.363,0,0,1-.037.33.746.746,0,0,0-.147-.2Z" transform="translate(-476.181 -687.98)" fill="#fff" fill-rule="evenodd"/>
  </g>
</svg>
