<svg xmlns="http://www.w3.org/2000/svg" width="14.945" height="18.005" viewBox="0 0 14.945 18.005">
  <g id="Group_5" data-name="Group 5" transform="translate(-1546 -816)">
    <g id="Group_4" data-name="Group 4" transform="translate(1546 816)">
      <path id="Path_100" data-name="Path 100" d="M28.451,18H15.967A.968.968,0,0,1,15,17.038V6.778a.264.264,0,0,1,.527,0v10.26a.44.44,0,0,0,.44.44H28.451a.44.44,0,0,0,.44-.44V14.707a.264.264,0,0,1,.527,0v2.331a.968.968,0,0,1-.967.967m.7-4.265a.264.264,0,0,1-.264-.264V.967a.44.44,0,0,0-.44-.44H15.967a.44.44,0,0,0-.44.44v4.58a.264.264,0,0,1-.527,0V.967A.968.968,0,0,1,15.967,0H28.451a.968.968,0,0,1,.967.967V13.476a.264.264,0,0,1-.264.264" transform="translate(-14.473)" fill="#007aff"/>
      <path id="Path_101" data-name="Path 101" d="M13.627,45.895H1.846a.264.264,0,0,1-.264-.264v-.387H.264a.264.264,0,0,1,0-.527H1.582v-.527H.264a.264.264,0,1,1,0-.527H1.582v-.527H.264a.264.264,0,0,1,0-.527H1.582V39.266H.264a.264.264,0,0,1,0-.527H1.582v-.527H.264a.264.264,0,0,1,0-.527H1.582v-.527H.264a.264.264,0,0,1,0-.527H1.582V33.288H.264a.264.264,0,0,1,0-.527H1.582v-.527H.264a.264.264,0,1,1,0-.527H1.582v-.527H.264a.264.264,0,1,1,0-.527H1.582v-.387A.264.264,0,0,1,1.846,30H13.627a.264.264,0,0,1,.264.264V45.631a.264.264,0,0,1-.264.264M2.11,45.367H13.363V30.527H2.11Zm8.616-.879H4.747a.264.264,0,0,1,0-.527h5.978a.264.264,0,0,1,0,.527m1.231-12.554H6.507a.264.264,0,0,1,0-.527h5.449a.264.264,0,0,1,0,.527m-6.5,0H3.517a.264.264,0,0,1,0-.527H5.452a.264.264,0,0,1,0,.527" transform="translate(0 -28.945)" fill="#007aff"/>
      <path id="Path_102" data-name="Path 102" d="M110.584,117.405h-5.609a1.284,1.284,0,0,1-1.111-1.926l2.8-4.854a1.284,1.284,0,0,1,2.223,0l.647,1.119a.264.264,0,0,1-.457.264l-.647-1.119a.756.756,0,0,0-1.309,0l-2.8,4.854a.756.756,0,0,0,.655,1.134h5.609a.756.756,0,0,0,.655-1.134l-1.543-2.671a.264.264,0,1,1,.457-.264l1.543,2.671a1.284,1.284,0,0,1-1.111,1.926" transform="translate(-100.043 -106.116)" fill="#007aff"/>
    </g>
    <path id="Path_103" data-name="Path 103" d="M101.2,150.478h-8.44a.264.264,0,0,1-.264-.264v-1.758a.264.264,0,0,1,.264-.264h8.44a.264.264,0,0,1,.264.264v1.758a.264.264,0,0,1-.264.264m-8.176-.527h7.912V148.72H93.026Zm6.7-3.692H97.334a.264.264,0,0,1,0-.527h1.935l-2.287-3.958L94.7,145.732H96.1a.264.264,0,0,1,0,.527H94.239a.264.264,0,0,1-.228-.4l2.744-4.749a.264.264,0,0,1,.457,0l2.744,4.749a.264.264,0,0,1-.228.4M96.983,145.2a.264.264,0,0,1,0-.527h0a.264.264,0,0,1,0,.527m0-.914a.264.264,0,0,1-.264-.264v-.88a.264.264,0,1,1,.527,0v.88a.264.264,0,0,1-.264.264" transform="translate(1456.754 679.975)" fill="#007aff"/>
  </g>
</svg>
