<svg id="Group_95" data-name="Group 95" xmlns="http://www.w3.org/2000/svg" xmlns:xlink="http://www.w3.org/1999/xlink" width="16.333" height="13.887" viewBox="0 0 16.333 13.887">
  <defs>
    <clipPath id="clip-path">
      <rect id="Rectangle_93" data-name="Rectangle 93" width="16.333" height="13.887" fill="#007aff"/>
    </clipPath>
  </defs>
  <g id="Group_94" data-name="Group 94" clip-path="url(#clip-path)">
    <path id="Path_188" data-name="Path 188" d="M16.212,11.158l-1.689-1.9a.479.479,0,0,0-.357-.16h-2.21V4.508h3.9a.479.479,0,0,0,.377-.773L15.094,2.281,16.237.767A.478.478,0,0,0,15.855,0H11.477A.478.478,0,0,0,11,.479V9.1H8.007V5.464a1.436,1.436,0,1,0-.957,0V9.1H3.318V7.7a1.436,1.436,0,1,0-.957,0V9.1H.479A.479.479,0,0,0,0,9.581v3.828a.479.479,0,0,0,.479.479H14.166a.478.478,0,0,0,.36-.164l1.689-1.932a.478.478,0,0,0,0-.633M11.956.957h2.938L14.109,2a.479.479,0,0,0,.005.583l.759.97H11.956ZM7.529,3.632a.479.479,0,1,1-.479.479.479.479,0,0,1,.479-.479M2.839,5.865a.479.479,0,1,1-.479.479.479.479,0,0,1,.479-.479m6.055,4.258,1.357,1.384L8.9,12.863a.484.484,0,0,0-.055.067H5.471l.979-1.1a.479.479,0,0,0,0-.633l-1-1.138H8.842a.48.48,0,0,0,.052.064M.957,10.059h3.23l1.268,1.45L4.189,12.93H.957ZM13.949,12.93H10.183l1.08-1.081a.479.479,0,0,0,0-.673l-1.095-1.116h3.779l1.265,1.421Z" fill="#007aff"/>
  </g>
</svg>
