<svg id="Group_22" data-name="Group 22" xmlns="http://www.w3.org/2000/svg" width="20.407" height="20.407" viewBox="0 0 20.407 20.407">
  <path id="Path_10" data-name="Path 10" d="M200.658,200.329a.329.329,0,1,1-.329-.329A.329.329,0,0,1,200.658,200.329Zm3.291,0a.329.329,0,1,1-.329-.329A.329.329,0,0,1,203.95,200.329Zm-1.975,3.291a1.318,1.318,0,0,0,1.317-1.317h-.658a.658.658,0,1,1-1.317,0h-.658A1.318,1.318,0,0,0,201.975,203.621Zm0,0" transform="translate(-191.771 -191.771)" fill="#b8b8b8"/>
  <path id="Path_11" data-name="Path 11" d="M17.642,17.177a10.2,10.2,0,1,0-14.877,0c0,.005,0,.011,0,.016l.01,0a10.18,10.18,0,0,0,14.852,0l.01,0c0-.005,0-.01,0-.016ZM19.749,10.2a9.494,9.494,0,0,1-1.978,5.808,2.242,2.242,0,0,0-3.7-1.643L12.172,13.9v-.4h1.313a1.985,1.985,0,0,0,1.843-2.722L14.859,9.6a2.8,2.8,0,0,0,.6-1.584L15.7,7.7a3.764,3.764,0,0,0-1.82-5.83L12.62,1.446A5.6,5.6,0,0,1,11.179.708,9.559,9.559,0,0,1,19.749,10.2ZM8.229,14.576l.249-.062a2.69,2.69,0,0,0,3.452,0l.249.062V15.8H8.229ZM4.608,5.5A2.914,2.914,0,0,1,6.449,2.778l1.762-.7A6.2,6.2,0,0,0,10.206.783a6.278,6.278,0,0,0,2.207,1.288l1.264.421A3.1,3.1,0,0,1,15.329,7.08Q15.3,7,15.268,6.917a2.607,2.607,0,0,0,.2-.992c0-2-2.363-3.621-5.266-3.621S4.937,3.928,4.937,5.925a2.61,2.61,0,0,0,.2.993q-.034.082-.063.167A2.949,2.949,0,0,1,4.608,5.5Zm2.3,4.646a.982.982,0,0,1,0-1.854ZM7.57,7.889A2.537,2.537,0,0,0,9.314,7a8.744,8.744,0,0,0,3.523.89V10.2a2.633,2.633,0,0,1-5.266,0Zm5.925.4a.982.982,0,0,1,0,1.854Zm-4.6,4.932a3.272,3.272,0,0,0,2.619,0V14a2.133,2.133,0,0,1-1.31.478A2.156,2.156,0,0,1,8.894,14Zm4.539-2.387a1.635,1.635,0,0,0,.986-.564l.3.746a1.327,1.327,0,0,1-1.232,1.82H12.17a3.294,3.294,0,0,0,1.263-2Zm1.251-2.254A1.651,1.651,0,0,0,13.5,7.6V6.912h-.658v.32a8.08,8.08,0,0,1-3.265-.839L9.1,6.159,8.942,6.4a1.882,1.882,0,0,1-1.372.829V6.912H6.912V7.6a1.651,1.651,0,0,0-1.189.977A1.949,1.949,0,0,1,5.6,7.9c0-1.633,2.067-2.962,4.608-2.962S14.812,6.266,14.812,7.9a1.949,1.949,0,0,1-.128.681ZM5.6,5.925A2.467,2.467,0,0,1,6.727,3.986L7.2,4.93A4.608,4.608,0,0,0,5.608,6.137,1.9,1.9,0,0,1,5.6,5.925Zm9.2.212A4.6,4.6,0,0,0,13.208,4.93l.472-.944a2.466,2.466,0,0,1,1.131,1.938A1.9,1.9,0,0,1,14.8,6.137ZM12.6,4.679A6.8,6.8,0,0,0,11.558,4.4l.21-1.263a5.672,5.672,0,0,1,1.351.491Zm-1.692-.364c-.231-.021-.464-.036-.7-.036s-.472.015-.7.036L9.285,3.022a7.123,7.123,0,0,1,1.836,0ZM8.638,3.142,8.848,4.4a6.841,6.841,0,0,0-1.039.274L7.286,3.634a5.692,5.692,0,0,1,1.352-.492ZM5.69,11.017l.3-.746a1.635,1.635,0,0,0,.986.564,3.293,3.293,0,0,0,1.263,2H6.923a1.327,1.327,0,0,1-1.232-1.82ZM9.289.7a5.552,5.552,0,0,1-1.323.759l-1.762.7A3.569,3.569,0,0,0,3.95,5.5a3.606,3.606,0,0,0,.718,2.152l.276.368a2.8,2.8,0,0,0,.6,1.584l-.469,1.172A1.986,1.986,0,0,0,6.922,13.5H8.235v.4l-1.894.472a2.242,2.242,0,0,0-3.705,1.643A9.537,9.537,0,0,1,9.289.7ZM3.376,16.865a4.126,4.126,0,0,1-.085-.8A1.585,1.585,0,0,1,5.92,14.874l.005,0v.17a2.866,2.866,0,0,1-.3,1.275A3.308,3.308,0,0,0,5.318,18.4a9.591,9.591,0,0,1-1.941-1.535Zm2.739,1.962a2.7,2.7,0,0,1-.191-.99,2.735,2.735,0,0,1,.288-1.219,3.533,3.533,0,0,0,.371-1.57v-.062l.987-.246v1.717h5.266V14.74l.987.246v.062a3.534,3.534,0,0,0,.371,1.57,2.734,2.734,0,0,1,.288,1.218,2.7,2.7,0,0,1-.191.99,9.526,9.526,0,0,1-8.177,0ZM15.09,18.4a3.309,3.309,0,0,0-.306-2.076,2.863,2.863,0,0,1-.3-1.275v-.17l0,0a1.585,1.585,0,0,1,2.629,1.193,4.119,4.119,0,0,1-.085.8A9.591,9.591,0,0,1,15.09,18.4Zm0,0" fill="#b8b8b8"/>
  <path id="Path_12" data-name="Path 12" d="M195.621,416a.973.973,0,0,1-1.317,0,.973.973,0,0,1-1.317,0,1.34,1.34,0,0,0,1.975,1.718.986.986,0,1,0,.658-1.718Zm-2.633,1.317a.329.329,0,1,1,.329-.329A.329.329,0,0,1,192.987,417.317Zm1.317,0a.329.329,0,1,1,.329-.329A.329.329,0,0,1,194.3,417.317Zm1.317,0a.329.329,0,1,1,.329-.329A.329.329,0,0,1,195.621,417.317Zm0,0" transform="translate(-184.1 -398.884)" fill="#b8b8b8"/>
</svg>
