<svg xmlns="http://www.w3.org/2000/svg" width="30" height="30" viewBox="0 0 30 30">
  <g id="Group_122" data-name="Group 122" transform="translate(-30 -210)">
    <circle id="Ellipse_16" data-name="Ellipse 16" cx="15" cy="15" r="15" transform="translate(30 210)" fill="#1d81ce"/>
    <g id="Group_80" data-name="Group 80" transform="translate(20.174 216.432)">
      <path id="Path_35" data-name="Path 35" d="M29.053,11.112a3,3,0,0,0-2.415,1.23L21.89,9.911A2.842,2.842,0,0,0,21.8,7.944l4.968-2.99a3,3,0,1,0-.729-1.942A2.984,2.984,0,0,0,26.25,4.1l-4.983,3a3.007,3.007,0,1,0,.189,3.723l4.732,2.423a2.971,2.971,0,0,0-.148.884,3.012,3.012,0,1,0,3.012-3.012Z" fill="#fff"/>
    </g>
  </g>
</svg>
