<svg xmlns="http://www.w3.org/2000/svg" width="9.365" height="9.365" viewBox="0 0 9.365 9.365">
  <g id="Group_58" data-name="Group 58" transform="translate(-1 -1)">
    <path id="Path_27" data-name="Path 27" d="M5.683,1a4.683,4.683,0,1,0,4.683,4.683A4.683,4.683,0,0,0,5.683,1Zm0,8.514A3.831,3.831,0,1,1,9.514,5.683,3.831,3.831,0,0,1,5.683,9.514Z" fill="#1776ba"/>
    <path id="Path_28" data-name="Path 28" d="M11.851,7.8V5.426a.426.426,0,1,0-.851,0V7.98a.426.426,0,0,0,.125.3L12.4,9.558a.426.426,0,1,0,.6-.6Z" transform="translate(-5.743 -2.297)" fill="#1776ba"/>
  </g>
</svg>
