<svg xmlns="http://www.w3.org/2000/svg" width="30" height="30" viewBox="0 0 30 30">
  <g id="Group_82" data-name="Group 82" transform="translate(-0.125 -0.125)">
    <circle id="Ellipse_17" data-name="Ellipse 17" cx="15" cy="15" r="15" transform="translate(0.125 0.125)" fill="#1d81ce"/>
    <g id="Group_81" data-name="Group 81" transform="translate(6.717 5.51)">
      <path id="Path_36" data-name="Path 36" d="M1095.58,1208.159a5.58,5.58,0,1,1,5.568-5.58A5.585,5.585,0,0,1,1095.58,1208.159Zm1.172-3.731a.226.226,0,0,0,.225-.225v-1.623a.226.226,0,0,0-.225-.225h-.192v-.462a.94.94,0,0,0-.992-.936.93.93,0,0,0-.981.936v.462h-.2a.226.226,0,0,0-.225.225v1.623a.226.226,0,0,0,.225.225Zm-.642-2.074h-1.071v-.462a.486.486,0,0,1,.53-.485.648.648,0,0,1,.383.124.434.434,0,0,1,.158.361Zm-1.5,1.623v-1.172h1.916v1.172Zm.969,2.593a.123.123,0,0,0,.056-.011,3.9,3.9,0,0,0,2.322-1.612,3.757,3.757,0,0,0,.643-1.849v-2.976a.252.252,0,0,0-.113-.2.263.263,0,0,0-.225,0,1.62,1.62,0,0,1-.812.214,3.163,3.163,0,0,1-1.736-.654.221.221,0,0,0-.282,0,3.187,3.187,0,0,1-.53.327,2.6,2.6,0,0,1-1.195.327,1.561,1.561,0,0,1-.812-.214.263.263,0,0,0-.225,0,.252.252,0,0,0-.113.2v2.965a3.759,3.759,0,0,0,.643,1.86,3.87,3.87,0,0,0,2.322,1.612A.085.085,0,0,0,1095.58,1206.57Zm-.068-.485a3.414,3.414,0,0,1-2.13-1.691,3.61,3.61,0,0,1-.372-1.319v-2.581l.271.045a1.783,1.783,0,0,0,.428.045,3.359,3.359,0,0,0,1.747-.575l.124-.079.113.079a3.4,3.4,0,0,0,1.758.575,1.91,1.91,0,0,0,.428-.045l.271-.045v2.581a3.571,3.571,0,0,1-.383,1.307,3.366,3.366,0,0,1-2.13,1.7l-.056.023Z" transform="translate(-1084.33 -1188.918)" fill="#fff" fill-rule="evenodd"/>
      <path id="Path_37" data-name="Path 37" d="M592.873,496.389h-3.7A2.184,2.184,0,0,1,587,494.214V482.175A2.184,2.184,0,0,1,589.175,480H595.4a.9.9,0,0,0-.124.451v3.461a.9.9,0,0,0,.9.9h3.472a.825.825,0,0,0,.44-.113v3.224a5.808,5.808,0,0,0-1.837-.293,6.179,6.179,0,0,0-2.051.361.2.2,0,0,0,.09-.18.226.226,0,0,0-.225-.225h-6.515a.225.225,0,1,0,0,.451H596.1a6.017,6.017,0,0,0-2.39,1.657h-4.159a.226.226,0,0,0-.225.225.219.219,0,0,0,.225.225h3.81a5.818,5.818,0,0,0-.845,1.668h-2.965a.225.225,0,1,0,0,.451h2.841a5.718,5.718,0,0,0-.169,1.4,2.168,2.168,0,0,0,.011.271h-2.683a.225.225,0,1,0,0,.451h2.717A6.1,6.1,0,0,0,592.873,496.389ZM593.29,484a.226.226,0,0,0,.225-.225v-2.085a.226.226,0,0,0-.225-.225h-2.942a.226.226,0,0,0-.225.225v2.085a.226.226,0,0,0,.225.225Zm-2.717-.451v-1.634h2.491v1.634Zm6.966,2.367a.225.225,0,1,0,0-.451h-7.992a.225.225,0,1,0,0,.451Z" transform="translate(-587 -480)" fill="#fff" fill-rule="evenodd"/>
      <path id="Path_38" data-name="Path 38" d="M1364.923,484.362h-3.472a.452.452,0,0,1-.451-.451v-3.461a.454.454,0,0,1,.282-.417.432.432,0,0,1,.485.1l3.438,3.427a.474.474,0,0,1,.169.349A.452.452,0,0,1,1364.923,484.362Z" transform="translate(-1352.276 -480)" fill="#fff" fill-rule="evenodd"/>
    </g>
  </g>
</svg>
