<svg xmlns="http://www.w3.org/2000/svg" width="30" height="30" viewBox="0 0 30 30">
  <g id="Group_121" data-name="Group 121" transform="translate(-30 -140)">
    <circle id="Ellipse_16" data-name="Ellipse 16" cx="15" cy="15" r="15" transform="translate(30 140)" fill="#1d81ce"/>
    <g id="Group_79" data-name="Group 79" transform="translate(0 1.535)">
      <g id="Group_76" data-name="Group 76" transform="translate(34.544 153.07)">
        <path id="Path_34" data-name="Path 34" d="M7.664,2.828l-2.42-.37L4.159.148a.256.256,0,0,0-.445,0L2.629,2.458l-2.42.37a.246.246,0,0,0-.139.415l1.758,1.8L1.413,7.592a.246.246,0,0,0,.362.255L3.937,6.653,6.1,7.847a.246.246,0,0,0,.362-.255L6.044,5.045,7.8,3.243a.246.246,0,0,0-.139-.415Z" transform="translate(-0.001 -0.019)" fill="#fff"/>
      </g>
      <g id="Group_77" data-name="Group 77" transform="translate(47.585 153.07)">
        <path id="Path_34-2" data-name="Path 34" d="M7.664,2.828l-2.42-.37L4.159.148a.256.256,0,0,0-.445,0L2.629,2.458l-2.42.37a.246.246,0,0,0-.139.415l1.758,1.8L1.413,7.592a.246.246,0,0,0,.362.255L3.937,6.653,6.1,7.847a.246.246,0,0,0,.362-.255L6.044,5.045,7.8,3.243a.246.246,0,0,0-.139-.415Z" transform="translate(-0.001 -0.019)" fill="#fff"/>
      </g>
      <g id="Group_78" data-name="Group 78" transform="translate(41.064 146)">
        <path id="Path_34-3" data-name="Path 34" d="M7.664,2.828l-2.42-.37L4.159.148a.256.256,0,0,0-.445,0L2.629,2.458l-2.42.37a.246.246,0,0,0-.139.415l1.758,1.8L1.413,7.592a.246.246,0,0,0,.362.255L3.937,6.653,6.1,7.847a.246.246,0,0,0,.362-.255L6.044,5.045,7.8,3.243a.246.246,0,0,0-.139-.415Z" transform="translate(-0.001 -0.019)" fill="#fff"/>
      </g>
    </g>
  </g>
</svg>
