<svg xmlns="http://www.w3.org/2000/svg" width="16.754" height="17.424" viewBox="0 0 16.754 17.424">
  <g id="Group_21" data-name="Group 21" transform="translate(-7 -5)">
    <path id="Path_8" data-name="Path 8" d="M22.752,17.613l.563.445a8.358,8.358,0,0,0-1.32-7.8,6.182,6.182,0,0,1-.179.9,7.681,7.681,0,0,1,.936,6.46ZM7.81,16.835A7.7,7.7,0,0,1,14.824,7.7a3.84,3.84,0,0,1,.474-.69A8.354,8.354,0,0,0,7.251,17.393Zm12.09-.623a1.677,1.677,0,0,0-2.256.168l-1.378,1.464,4.282,4.119a8.341,8.341,0,0,0,2.4-3.008l.114-.241Zm-4.523,7.545a8.418,8.418,0,0,1-7.841-5.424l-.076-.2,3.065-3.065a1.675,1.675,0,0,1,2.346-.021l7.415,7.13-.353.23a8.325,8.325,0,0,1-4.556,1.351Z" transform="translate(0 -1.334)" fill="#b8b8b8"/>
    <circle id="Ellipse_5" data-name="Ellipse 5" cx="1" cy="1" r="1" transform="translate(11.377 9.712)" fill="#b8b8b8"/>
    <path id="Path_9" data-name="Path 9" d="M34.165,5A3.166,3.166,0,0,0,31,8.165c0,3.392,3.165,5.428,3.165,5.428s3.167-2.036,3.167-5.428A3.166,3.166,0,0,0,34.166,5Zm0,4.3a1.356,1.356,0,1,1,.96-.4A1.357,1.357,0,0,1,34.165,9.3Z" transform="translate(-15.958)" fill="#b8b8b8"/>
  </g>
</svg>
