<svg xmlns="http://www.w3.org/2000/svg" width="158.617" height="158.425" viewBox="0 0 158.617 158.425">
  <g id="Group_129" data-name="Group 129" transform="translate(0 -0.309)">
    <path id="Path_199" data-name="Path 199" d="M218.249,79.522A79.212,79.212,0,0,0,139.036.309C108.553.309,89.776,17.5,89.724,17.532a5.635,5.635,0,0,0-.927,1.622A89.351,89.351,0,0,0,86.5,36.624c0,43.748,36.892,79.2,80.64,79.2,16.846,0,35.589-8.074,48.133-17.782a13.01,13.01,0,0,0,1.171-1.676,77.511,77.511,0,0,0,1.8-16.848Z" transform="translate(-59.632)" fill="#dff6fd"/>
    <path id="Path_200" data-name="Path 200" d="M26.377,176.2h106.9a79.011,79.011,0,0,0,23.961-41.607c-13.531,10.778-30.469,15.564-49.113,15.564-43.748,0-79.41-33.806-79.41-77.554a79.487,79.487,0,0,1,1.8-16.847A79.207,79.207,0,0,0,26.377,176.2Zm42.555,20.008a79.54,79.54,0,0,0,21.792,0Z" transform="translate(-0.426 -38.222)" fill="#c4e2ff"/>
    <path id="Path_201" data-name="Path 201" d="M81.921,442a79.208,79.208,0,0,0,107.91,0Z" transform="translate(-56.473 -304.487)" fill="#9355c5"/>
    <path id="Path_202" data-name="Path 202" d="M237.207,248.519h11.819v36.026H237.207Z" transform="translate(-163.521 -171.107)" fill="#fec344"/>
    <path id="Path_203" data-name="Path 203" d="M237.207,252.079a19.119,19.119,0,0,0,11.819,0v-9.185H237.207Z" transform="translate(-163.521 -167.229)" fill="#fec344"/>
    <path id="Path_204" data-name="Path 204" d="M187.525,50.178c-4.448,1.732-5.48,9.9-5.48,13.682,0,30.624,5.271,52.809,23.045,52.809s32.183-24.826,32.183-55.451a94.869,94.869,0,0,0-.639-11.04Z" transform="translate(-125.495 -34.378)" fill="#fedf30"/>
    <path id="Path_205" data-name="Path 205" d="M166.608,61.218a94.869,94.869,0,0,1,.639-11.04H153.268a94.877,94.877,0,0,0-.639,11.04c0,30.624,14.409,55.451,32.183,55.451a19.509,19.509,0,0,0,6.989-1.315c-14.413-5.5-25.193-27.647-25.193-54.135Z" transform="translate(-105.216 -34.378)" fill="#fec344"/>
    <path id="Path_206" data-name="Path 206" d="M137.516,133.339c-7.743,0-14.962-4.021-20.325-11.323-5.162-7.026-8-16.32-8-26.169a49.972,49.972,0,0,1,.536-7.309A2.97,2.97,0,0,1,112.661,86h11.015v5.94H115.3q-.172,1.947-.172,3.9c0,17.4,10.044,31.551,22.388,31.551a16.1,16.1,0,0,0,4.65-.692l1.715,5.688a22.062,22.062,0,0,1-6.364.945Z" transform="translate(-75.269 -59.075)" fill="#fec344"/>
    <path id="Path_207" data-name="Path 207" d="M296.729,133.338a22.043,22.043,0,0,1-6.365-.945l1.714-5.688a16.108,16.108,0,0,0,4.65.692c12.345,0,22.388-14.154,22.388-31.551,0-1.3-.058-2.61-.172-3.9h-8.376V86h11.015a2.97,2.97,0,0,1,2.938,2.534,49.956,49.956,0,0,1,.536,7.309c0,9.849-2.842,19.142-8,26.169-5.363,7.3-12.582,11.323-20.325,11.323Z" transform="translate(-200.166 -59.074)" fill="#fedf30"/>
    <path id="Path_208" data-name="Path 208" d="M192.327,353.673h39.7v7.271h-39.7Z" transform="translate(-132.583 -243.596)" fill="#fef48b"/>
    <path id="Path_209" data-name="Path 209" d="M192.327,353.673h13.941v7.271H192.327Z" transform="translate(-132.583 -243.596)" fill="#fedf30"/>
    <path id="Path_210" data-name="Path 210" d="M168.734,377.08h54.36v31.657h-54.36Z" transform="translate(-116.319 -259.732)" fill="#c97038"/>
    <path id="Path_211" data-name="Path 211" d="M208.709,401.6h29.525v16.619H208.709Z" transform="translate(-143.876 -276.636)" fill="#fedf30"/>
    <path id="Path_212" data-name="Path 212" d="M240.905,92.75c-5.493,0-4.386-42.572-4.386-42.572h8.771S246.06,92.75,240.905,92.75Zm-17.024,83.213h-7.989l9.086-16.619h7.99Z" transform="translate(-148.828 -34.378)" fill="#fef48b"/>
    <path id="Path_213" data-name="Path 213" d="M169.287,313.487q-1.127-6.161-2.629-12.244l-4.46-3.1a110.842,110.842,0,0,0-126.166-.154l-4.706,3.249q-1.492,6.042-2.615,12.167a2.135,2.135,0,0,0,.39,1.712,2.052,2.052,0,0,0,2.388.632l.016-.007a178.617,178.617,0,0,1,134.973,0A2.055,2.055,0,0,0,169.287,313.487Z" transform="translate(-19.766 -191.684)" fill="#00f2a6"/>
    <path id="Path_214" data-name="Path 214" d="M11.561,294.58q-5.177-3.611-10.574-6.89a2.049,2.049,0,0,1,.289-3.649,205.758,205.758,0,0,1,155.9,0,2.051,2.051,0,0,1,.29,3.65q-5.395,3.277-10.574,6.89a192.191,192.191,0,0,0-135.332,0Z" transform="translate(0 -185.022)" fill="#6cf5c2"/>
    <path id="Path_215" data-name="Path 215" d="M73.223,296.622a2.042,2.042,0,0,0-1.615,2.827l1.679,5.807a2.028,2.028,0,0,0,2.784,1.584c1.891-.517,1.658-1.887,1.5-2.768-.144-.835.62-1.274,1.588-1.517,1.307-.331,1.99-.161,2.31,1.167.7,2.955-1.424,5.234-4.738,6.154-3.038.839-5.983.24-7.166-3.5l-1.8-5.771c-1.183-3.739,1.135-6,4.473-6.927,3.644-1.01,6.8-.063,7.464,2.753.321,1.331-.224,1.787-1.533,2.118-1.038.263-1.94.241-2.2-.539-.175-.566-.622-1.968-2.752-1.384Zm9.817,6.094-1.367-5.888c-.9-3.816,1.51-5.892,5.074-6.6s6.6.287,7.224,4.158l.985,5.964c.623,3.875-1.694,5.724-4.937,6.368S83.943,306.537,83.04,302.717Zm7.012-7.64a2.286,2.286,0,1,0-4.484.889l1.246,5.915a2.215,2.215,0,1,0,4.345-.862l-1.106-5.943Zm16.266,8.064q-2.708-3.7-5.575-7.288l1.007,7.69c.093.724-.787,1.206-1.713,1.338s-1.906-.089-2.017-.811L95.847,289.75c-.114-.745.845-1.236,1.857-1.379,1.45-.2,2.018-.16,3.206,1.366q2.514,3.219,4.907,6.53l-.807-7.714c-.08-.748.9-1.172,1.919-1.268s2.06.137,2.121.887l1.215,14.457c.06.728-.841,1.169-1.771,1.257A2.159,2.159,0,0,1,106.318,303.141Zm11.788-13.49a2.032,2.032,0,0,0-2.2,2.381l.3,6.037a2.206,2.206,0,1,0,4.407-.171l-.021-.775q-.73.02-1.459.045a1.249,1.249,0,0,1-1.218-1.324,1.267,1.267,0,0,1,1.123-1.412q2.107-.073,4.214-.1a1.1,1.1,0,0,1,1.187,1.106l.016,2.4c.01,3.926-2.56,5.388-5.85,5.517s-5.943-1.134-6.237-5.049l-.427-6.03c-.294-3.91,2.45-5.582,5.882-5.715,3.746-.148,6.581,1.494,6.586,4.388.008,1.369-.622,1.689-1.963,1.711-1.062.019-1.954-.209-2-1.028S120.293,289.57,118.106,289.651Zm8.625-2.175a1.14,1.14,0,0,1,1.259-1.062q2.7.03,5.406.134c3.586.137,6.352,1.513,6.076,5.218a4.56,4.56,0,0,1-3.332,4.431q1.374,2.591,2.676,5.218a.714.714,0,0,1,.092.418c-.066.887-1.376,1.754-2.473,1.691a1.3,1.3,0,0,1-1.161-.727q-1.492-3.127-3.082-6.206-.818-.028-1.637-.048l-.139,5.5c-.02.73-.962,1.069-1.9,1.056s-1.865-.384-1.863-1.114q.037-7.254.073-14.508Zm4,2.092-.108,4.241q1.246.031,2.491.079c1.407.055,2.288-.423,2.369-2.019s-.766-2.165-2.207-2.221q-1.273-.049-2.545-.081Zm8.808,12.565a1.125,1.125,0,0,1,.067-.247q2.775-6.795,5.862-13.455c.363-.767,1.575-1.034,2.773-.9s2.32.667,2.5,1.494q1.536,7.182,2.74,14.428a1.118,1.118,0,0,1,.01.255c-.129.832-1.574,1.238-2.595,1.1-.594-.08-1.046-.326-1.127-.819q-.22-1.467-.453-2.934-2.558-.325-5.125-.58-.554,1.377-1.1,2.759c-.189.463-.683.6-1.28.547C140.8,303.69,139.48,302.974,139.54,302.132Zm9.313-3.893q-.527-3.148-1.111-6.287-1.27,2.928-2.487,5.88Q147.056,298.019,148.854,298.239Zm17.969-7.578c.849.177,1.034,1.061.875,1.8-.184.848-.772,1.488-1.53,1.33q-1.744-.366-3.495-.7l-2.322,12.167c-.138.717-1.127.9-2.049.733s-1.784-.684-1.663-1.4l2.073-12.212q-1.754-.3-3.513-.564c-.764-.115-1.089-.922-.966-1.78.107-.744.588-1.506,1.444-1.377q5.6.847,11.148,2.01Zm7.153,14.237c.728-2.712-7.077-4.12-5.961-9.29.723-3.347,4.374-3.872,7.572-3.045,1.356.334,5.01,1.584,4.514,3.3-.17.592-.962,1.669-2.057,1.366-.9-.244-1.144-1.217-3.206-1.751-1.786-.457-2.674.014-2.839.7-.521,2.169,7.431,3.831,5.8,9.395-.923,3.155-3.846,4.148-7.221,3.3-3.05-.772-5.325-2.753-5.013-4.227a1.985,1.985,0,0,1,2.049-1.506c1.135.263,1.468,2.067,3.674,2.618C172.378,306.03,173.693,305.955,173.975,304.9Zm6.7,3.058a1.825,1.825,0,0,1,1.256,2.233,1.857,1.857,0,0,1-2.288,1.125,1.828,1.828,0,0,1-1.283-2.222A1.8,1.8,0,0,1,180.676,307.956Zm2.118-2.04c-.214.674-1.11.7-1.679.528-.76-.233-1.318-.71-1.116-1.387.78-2.6,1.55-6.442,2.32-9.044.252-.853,1.2-1.094,2.241-.777.986.3,1.665,1.046,1.394,1.894-.824,2.586-2.344,6.2-3.159,8.786Z" transform="translate(-46.503 -197.23)" fill="#fd3581"/>
  </g>
</svg>
