<svg xmlns="http://www.w3.org/2000/svg" xmlns:xlink="http://www.w3.org/1999/xlink" width="16.493" height="16.493" viewBox="0 0 16.493 16.493">
  <defs>
    <clipPath id="clip-path">
      <path id="Path_122" data-name="Path 122" d="M0-682.665H16.493v16.493H0Z" transform="translate(0 682.665)" fill="#007aff"/>
    </clipPath>
  </defs>
  <g id="Group_7" data-name="Group 7" transform="translate(0 -0.002)">
    <g id="Group_6" data-name="Group 6" transform="translate(0 0.002)" clip-path="url(#clip-path)">
      <path id="Path_104" data-name="Path 104" d="M-47.9-95.96h-.468a.719.719,0,0,1-.718-.718v-1.269a.719.719,0,0,1,.718-.718h.468a.322.322,0,0,1,.322.322.322.322,0,0,1-.322.322h-.468a.074.074,0,0,0-.074.074v1.269a.074.074,0,0,0,.074.074h.468a.322.322,0,0,1,.322.322A.322.322,0,0,1-47.9-95.96Z" transform="translate(53.9 100.084)" fill="#007aff"/>
      <path id="Path_105" data-name="Path 105" d="M-12.27-12.689h-.741a.322.322,0,0,1-.322-.322.322.322,0,0,1,.322-.322h.741a.322.322,0,0,1,.322.322A.322.322,0,0,1-12.27-12.689Z" transform="translate(18.148 15.782)" fill="#007aff"/>
      <path id="Path_106" data-name="Path 106" d="M-49.141-10.627h-.553a.322.322,0,0,1-.322-.322.322.322,0,0,1,.322-.322h.553a.194.194,0,0,0,.193-.193.194.194,0,0,0-.193-.193h-.038a.839.839,0,0,1-.838-.838.839.839,0,0,1,.838-.838h.371a.322.322,0,0,1,.322.322.322.322,0,0,1-.322.322h-.371a.194.194,0,0,0-.193.193.194.194,0,0,0,.193.193h.038a.839.839,0,0,1,.838.838A.839.839,0,0,1-49.141-10.627Z" transform="translate(56.848 14.751)" fill="#007aff"/>
      <path id="Path_107" data-name="Path 107" d="M-13.011-10.627a.322.322,0,0,1-.322-.322v-2.062a.322.322,0,0,1,.322-.322.322.322,0,0,1,.322.322v2.062A.322.322,0,0,1-13.011-10.627Z" transform="translate(16.643 14.751)" fill="#007aff"/>
      <path id="Path_108" data-name="Path 108" d="M-11.948-12.689h-1.063a.322.322,0,0,1-.322-.322.322.322,0,0,1,.322-.322h1.063a.322.322,0,0,1,.322.322A.322.322,0,0,1-11.948-12.689Z" transform="translate(16.112 14.751)" fill="#007aff"/>
      <path id="Path_109" data-name="Path 109" d="M-13.011-10.627a.322.322,0,0,1-.322-.322v-2.062a.322.322,0,0,1,.322-.322.322.322,0,0,1,.322.322v2.062A.322.322,0,0,1-13.011-10.627Z" transform="translate(22.844 14.751)" fill="#007aff"/>
      <path id="Path_110" data-name="Path 110" d="M-11.948-12.689h-1.063a.322.322,0,0,1-.322-.322.322.322,0,0,1,.322-.322h1.063a.322.322,0,0,1,.322.322A.322.322,0,0,1-11.948-12.689Z" transform="translate(22.313 14.751)" fill="#007aff"/>
      <path id="Path_111" data-name="Path 111" d="M-513.413-366.172h-10.824a1.1,1.1,0,0,1-1.1-1.1v-14.3a1.1,1.1,0,0,1,1.1-1.1h10.824a1.1,1.1,0,0,1,1.1,1.1v4.317a.322.322,0,0,1-.322.322.322.322,0,0,1-.322-.322v-4.317a.452.452,0,0,0-.451-.451h-10.824a.452.452,0,0,0-.451.451v14.3a.452.452,0,0,0,.451.451h10.824a.451.451,0,0,0,.451-.451v-6.153a.322.322,0,0,1,.322-.322.322.322,0,0,1,.322.322v6.153A1.1,1.1,0,0,1-513.413-366.172Z" transform="translate(525.558 382.666)" fill="#007aff"/>
      <path id="Path_112" data-name="Path 112" d="M95.552-456.733H94.263a.322.322,0,0,1-.322-.322v-1.289a.322.322,0,0,1,.322-.322h1.289a.322.322,0,0,1,.322.322v1.289A.322.322,0,0,1,95.552-456.733Zm-.966-.644h.644v-.644h-.644Z" transform="translate(-91.671 464.078)" fill="#007aff"/>
      <path id="Path_113" data-name="Path 113" transform="translate(10.747 7.023)" fill="#007aff"/>
      <path id="Path_114" data-name="Path 114" d="M-8.711-12.689h-4.3a.322.322,0,0,1-.322-.322.322.322,0,0,1,.322-.322h4.3a.322.322,0,0,1,.322.322A.322.322,0,0,1-8.711-12.689Z" transform="translate(18.169 19.389)" fill="#007aff"/>
      <path id="Path_115" data-name="Path 115" d="M95.552-318.066H94.263a.322.322,0,0,1-.322-.322v-1.289a.322.322,0,0,1,.322-.322h1.289a.322.322,0,0,1,.322.322v1.289A.322.322,0,0,1,95.552-318.066Zm-.966-.644h.644v-.644h-.644Z" transform="translate(-91.671 328.761)" fill="#007aff"/>
      <path id="Path_116" data-name="Path 116" d="M-8.064-12.689h-4.948a.322.322,0,0,1-.322-.322.322.322,0,0,1,.322-.322h4.948a.322.322,0,0,1,.322.322A.322.322,0,0,1-8.064-12.689Z" transform="translate(18.169 22.905)" fill="#007aff"/>
      <path id="Path_117" data-name="Path 117" d="M95.552-179.4H94.263a.322.322,0,0,1-.322-.322v-1.289a.322.322,0,0,1,.322-.322h1.289a.322.322,0,0,1,.322.322v1.289A.322.322,0,0,1,95.552-179.4Zm-.966-.644h.644v-.644h-.644Z" transform="translate(-91.671 193.445)" fill="#007aff"/>
      <path id="Path_118" data-name="Path 118" d="M-10.245-12.689h-2.766a.322.322,0,0,1-.322-.322.322.322,0,0,1,.322-.322h2.766a.322.322,0,0,1,.322.322A.322.322,0,0,1-10.245-12.689Z" transform="translate(18.169 26.09)" fill="#007aff"/>
      <path id="Path_119" data-name="Path 119" d="M-273.843-79.922a.322.322,0,0,1-.161-.043.322.322,0,0,1-.158-.322l.315-2.35a.322.322,0,0,1,.04-.118l4.734-8.2a1.228,1.228,0,0,1,1.061-.612,1.224,1.224,0,0,1,.611.164,1.216,1.216,0,0,1,.57.743,1.216,1.216,0,0,1-.122.929l-4.734,8.2a.322.322,0,0,1-.082.094l-1.878,1.448A.322.322,0,0,1-273.843-79.922Zm.626-2.566-.2,1.511,1.207-.931,4.7-8.145a.576.576,0,0,0,.058-.44.576.576,0,0,0-.27-.352.579.579,0,0,0-.289-.078.582.582,0,0,0-.5.29Z" transform="translate(283.056 93.967)" fill="#007aff"/>
      <path id="Path_120" data-name="Path 120" d="M-70.915-46.119a.321.321,0,0,1-.161-.043l-1.434-.828a.322.322,0,0,1-.118-.44.322.322,0,0,1,.44-.118l1.434.828a.322.322,0,0,1,.118.44A.322.322,0,0,1-70.915-46.119Z" transform="translate(81.913 58.664)" fill="#007aff"/>
      <path id="Path_121" data-name="Path 121" d="M-76.114-49.122a.321.321,0,0,1-.161-.043l-1.562-.9a.322.322,0,0,1-.118-.44.322.322,0,0,1,.44-.118l1.562.9a.322.322,0,0,1,.118.44A.322.322,0,0,1-76.114-49.122Z" transform="translate(91.628 54.057)" fill="#007aff"/>
    </g>
  </g>
</svg>
