<svg xmlns="http://www.w3.org/2000/svg" width="11.579" height="11.579" viewBox="0 0 11.579 11.579">
  <g id="Group_66" data-name="Group 66" transform="translate(-1 -1)">
    <g id="Layer_2" data-name="Layer 2" transform="translate(1 1)">
      <path id="Path_30" data-name="Path 30" d="M9.553,5.5a4.053,4.053,0,1,0,4.053,4.053A4.053,4.053,0,0,0,9.553,5.5ZM11.4,10.95a.386.386,0,0,1-.3.147.371.371,0,0,1-.239-.085L9.313,9.854a.386.386,0,0,1-.147-.3v-2.7a.386.386,0,1,1,.772,0V9.367l1.4,1.042a.379.379,0,0,1,.062.54Z" transform="translate(-3.763 -3.763)" fill="#1776ba"/>
      <path id="Path_31" data-name="Path 31" d="M6.789,1a5.789,5.789,0,1,0,5.789,5.789A5.789,5.789,0,0,0,6.789,1Zm0,10.64a4.85,4.85,0,1,1,4.85-4.85,4.85,4.85,0,0,1-4.85,4.85Z" transform="translate(-1 -1)" fill="#1776ba"/>
    </g>
  </g>
</svg>
