<svg xmlns="http://www.w3.org/2000/svg" width="17.539" height="16.607" viewBox="0 0 17.539 16.607">
  <g id="Group_28" data-name="Group 28" transform="translate(-1 -1.804)">
    <path id="Layer_2" data-name="Layer 2" d="M17.493,7.672a2.292,2.292,0,0,1-1.807-3.1,1.076,1.076,0,0,0-.322-1.21,8.624,8.624,0,0,0-2.572-1.491,1.082,1.082,0,0,0-1.222.339,2.286,2.286,0,0,1-3.6,0,1.082,1.082,0,0,0-1.222-.339,8.664,8.664,0,0,0-2.4,1.345,1.087,1.087,0,0,0-.339,1.245A2.28,2.28,0,0,1,2.111,7.6a1.082,1.082,0,0,0-.947.871A8.267,8.267,0,0,0,1,10.1a8.372,8.372,0,0,0,.111,1.374,1.082,1.082,0,0,0,.953.906,2.28,2.28,0,0,1,1.859,3.221,1.064,1.064,0,0,0,.3,1.275A8.688,8.688,0,0,0,6.77,18.347a1.169,1.169,0,0,0,.368.064,1.076,1.076,0,0,0,.877-.456,2.263,2.263,0,0,1,1.871-.982,2.292,2.292,0,0,1,1.836.924,1.076,1.076,0,0,0,1.263.357,8.77,8.77,0,0,0,2.339-1.4,1.082,1.082,0,0,0,.316-1.234,2.28,2.28,0,0,1,1.83-3.151,1.082,1.082,0,0,0,.918-.889,8.478,8.478,0,0,0,.152-1.479,8.4,8.4,0,0,0-.146-1.563A1.07,1.07,0,0,0,17.493,7.672Zm-4.8,2.432A2.923,2.923,0,1,1,9.77,7.18,2.923,2.923,0,0,1,12.693,10.1Z" transform="translate(0)" fill="#1776ba"/>
  </g>
</svg>
