<svg xmlns="http://www.w3.org/2000/svg" width="19.358" height="19.366" viewBox="0 0 19.358 19.366">
  <g id="Group_118" data-name="Group 118" transform="translate(-0.28 -0.27)">
    <path id="Path_134" data-name="Path 134" d="M10.635,16.843,4.18,13.615V6.408L10.635,3.23l6.455,3.178v7.207ZM5.8,12.616l4.837,2.419,4.837-2.419V7.407L10.635,5.03,5.8,7.407Z" transform="translate(-0.681 -0.516)" fill="#1776ba"/>
    <path id="Path_135" data-name="Path 135" d="M11.544,16.793H9.926V11.2L4.75,8.645l.347-.7L5.088,7.11H5.3L11.544,10.2Z" transform="translate(-0.78 -1.194)" fill="#1776ba"/>
    <path id="Path_136" data-name="Path 136" d="M12.638,16.793H11.02V10.2L17.261,7.11h.19l.017.834.347.7L12.638,11.2Z" transform="translate(-1.874 -1.194)" fill="#1776ba"/>
    <path id="Path_137" data-name="Path 137" d="M9.955,10.407,3.97,7.452l.347-.7-.008-.834H4.5l.19.091,5.267,2.6,5.432-2.691h.19l.017.834.347.7ZM1.89,5.116H.28V.27H5.117V1.888H1.89ZM5.117,19.636H.28V14.791H1.89v3.228H5.117Zm14.521,0H14.792V18.018H18.02V14.791h1.618Zm0-14.521H18.02V1.888H14.792V.27h4.846Z" transform="translate(0 0)" fill="#1776ba"/>
  </g>
</svg>
