<svg id="Group_105" data-name="Group 105" xmlns="http://www.w3.org/2000/svg" xmlns:xlink="http://www.w3.org/1999/xlink" width="254.999" height="191.724" viewBox="0 0 254.999 191.724">
  <defs>
    <clipPath id="clip-path">
      <rect id="Rectangle_102" data-name="Rectangle 102" width="254.999" height="191.724" fill="none"/>
    </clipPath>
    <clipPath id="clip-path-3">
      <rect id="Rectangle_90" data-name="Rectangle 90" width="254.255" height="186.498" fill="none"/>
    </clipPath>
    <clipPath id="clip-path-4">
      <rect id="Rectangle_91" data-name="Rectangle 91" width="148.013" height="113.97" fill="none"/>
    </clipPath>
    <clipPath id="clip-path-6">
      <rect id="Rectangle_93" data-name="Rectangle 93" width="12.947" height="15.162" fill="none"/>
    </clipPath>
    <clipPath id="clip-path-7">
      <rect id="Rectangle_94" data-name="Rectangle 94" width="4.977" height="10.606" fill="none"/>
    </clipPath>
    <clipPath id="clip-path-8">
      <rect id="Rectangle_97" data-name="Rectangle 97" width="222.769" height="3.247" fill="none"/>
    </clipPath>
  </defs>
  <g id="Group_104" data-name="Group 104" clip-path="url(#clip-path)">
    <g id="Group_90" data-name="Group 90">
      <g id="Group_89" data-name="Group 89" clip-path="url(#clip-path)">
        <path id="Path_39" data-name="Path 39" d="M43.7,181.621s-31.754-22.613-40.9-61.1S7.614,35.36,34.075,11.785s74.093-7.7,95.262,12.028l21.17,19.726a99.04,99.04,0,0,0,46.669,10.1c26.462-.962,50.037,35.122,56.292,63.508s-8.66,65.914-8.66,65.914Z" transform="translate(0 0)" fill="#ddecff"/>
        <g id="Group_85" data-name="Group 85" transform="translate(0.496 1.378)" style="mix-blend-mode: multiply;isolation: isolate">
          <g id="Group_84" data-name="Group 84">
            <g id="Group_83" data-name="Group 83" clip-path="url(#clip-path-3)">
              <path id="Path_40" data-name="Path 40" d="M29.621,188.386A61.785,61.785,0,0,1,1.716,148.453c-5.773-27.905,19.245-53.4,21.65-67.357S20.48,49.823,42.612,36.352s61.584-8.66,76.5-12.028,32.235-26.462,62.065-21.17,58.7,21.17,60.14,55.81-9.623,35.6,1.444,54.367,15.4,31.754,10.1,51S236.5,188.868,236.5,188.868Z" transform="translate(-0.854 -2.37)" fill="#ddecff"/>
            </g>
          </g>
        </g>
        <g id="Group_88" data-name="Group 88" transform="translate(65.829 73.424)" style="mix-blend-mode: multiply;isolation: isolate">
          <g id="Group_87" data-name="Group 87">
            <g id="Group_86" data-name="Group 86" clip-path="url(#clip-path-4)">
              <path id="Path_41" data-name="Path 41" d="M122.88,234.014c-1.377-1.444-21.568-41.858.918-78.9s78.932-32.716,101.418-18.282,33.5,33.2,35.795,52.923-12.85,50.518-12.85,50.518Z" transform="translate(-113.234 -126.298)" fill="#ddecff"/>
            </g>
          </g>
        </g>
      </g>
    </g>
    <g id="Group_101" data-name="Group 101">
      <g id="Group_100" data-name="Group 100" clip-path="url(#clip-path)">
        <path id="Path_42" data-name="Path 42" d="M381.391,181.035H355.451a2.907,2.907,0,0,1-2.907-2.907v-12.95a2.907,2.907,0,0,1,2.907-2.907h25.941a2.907,2.907,0,0,1,2.907,2.907v12.95a2.907,2.907,0,0,1-2.907,2.907" transform="translate(-147.59 -67.934)" fill="#60a8ff"/>
        <path id="Path_43" data-name="Path 43" d="M376.894,200.151,381,190.408h-8.222Z" transform="translate(-156.063 -79.713)" fill="#60a8ff"/>
        <path id="Path_44" data-name="Path 44" d="M379.685,170.626h7.426v1.087l3.64-2.1-3.64-2.1V168.6h-7.426Z" transform="translate(-158.953 -70.129)" fill="#223a7a"/>
        <path id="Path_45" data-name="Path 45" d="M390.751,179.428h-7.426v-1.087l-3.64,2.1,3.64,2.1v-1.087h7.426Z" transform="translate(-158.953 -74.662)" fill="#fff"/>
        <path id="Path_46" data-name="Path 46" d="M368.017,176.722l-.354.128a11.214,11.214,0,0,1-1.674-2.628,9.431,9.431,0,0,1-.592-3.043l.258-.108-1.57-3.758a3.086,3.086,0,0,0-.762.864c-.889,1.5-.8,3.806.093,6.057s1.85,4.26,3.593,5.522a3.445,3.445,0,0,0,2.6.767Z" transform="translate(-151.842 -70.045)" fill="#223a7a"/>
        <path id="Path_47" data-name="Path 47" d="M373.433,182.694l-.488.177,1.607,3.847a2.851,2.851,0,0,0,.486-.21.936.936,0,0,0,.423-1.166l-.84-2.115a.934.934,0,0,0-1.188-.534" transform="translate(-156.131 -76.46)" fill="#223a7a"/>
        <path id="Path_48" data-name="Path 48" d="M366.742,166.141a3.688,3.688,0,0,0-.629.3l1.6,3.838.54-.226a.935.935,0,0,0,.51-1.2l-.843-2.164a.932.932,0,0,0-1.182-.542" transform="translate(-153.271 -69.531)" fill="#223a7a"/>
        <path id="Path_49" data-name="Path 49" d="M116.917,256.927v-43.3s-.481-11.667,5.653-15.035,31.995-1.564,31.995-1.564v59.9Z" transform="translate(-48.943 -82.282)" fill="#1c83ff"/>
        <path id="Path_50" data-name="Path 50" d="M191.421,127.65s-1.564,13.111-2.166,14.193l-.6,1.082-3.007,2.045s5.773,8.179,12.87,9.5,6.5-2.887,6.5-2.887L203.93,149.3l1.444-12.509s-12.87-5.894-13.953-9.141" transform="translate(-77.72 -53.44)" fill="#ff9d8c"/>
        <path id="Path_51" data-name="Path 51" d="M179.234,157.833l4.691-2.045a22.078,22.078,0,0,0,9.983,7.818c6.976,2.887,7.1,1.2,7.458,0a4.572,4.572,0,0,0-.12-2.526l.516-4.211,2.79.93,9.684,78.337-24.9,1.2Z" transform="translate(-75.035 -65.22)" fill="#fff"/>
        <path id="Path_52" data-name="Path 52" d="M218.751,157.788s1.684,3.889,3.247,13.031a310.675,310.675,0,0,1,3.368,35.122c.361,10.585.6,34.761.6,34.761h31.393c.36,0,2.526-11.908,2.526-11.908s-13.712-11.747-14.434-13.672c-.481-1.283-.241-25.059-2.285-36s-4.691-13.151-10.224-15.877a120.128,120.128,0,0,0-14.193-5.453" transform="translate(-91.579 -66.057)" fill="#223a7a"/>
        <path id="Path_53" data-name="Path 53" d="M246.246,240.424a.291.291,0,0,1-.291-.291c0-.86-.153-13.078-.3-24.894s-.3-24.038-.3-24.9a.291.291,0,1,1,.581,0c0,.86.153,13.078.3,24.894s.3,24.038.3,24.9a.291.291,0,0,1-.291.291" transform="translate(-102.716 -79.562)" fill="#8593b6"/>
        <path id="Path_54" data-name="Path 54" d="M139.13,271.648l-.241,16.719h36.566s1.563-14.193.962-15.516-37.287-1.2-37.287-1.2" transform="translate(-58.145 -113.723)" fill="#223a7a"/>
        <g id="Group_93" data-name="Group 93" transform="translate(114.706 75.628)" style="mix-blend-mode: multiply;isolation: isolate">
          <g id="Group_92" data-name="Group 92">
            <g id="Group_91" data-name="Group 91" clip-path="url(#clip-path-6)">
              <path id="Path_55" data-name="Path 55" d="M204.281,142.5a19.137,19.137,0,0,0,5.115,2.748l.859-7.439s-9.667-4.428-12.947-7.723a20.157,20.157,0,0,0,6.973,12.414" transform="translate(-197.308 -130.089)" fill="#8e9bbb"/>
            </g>
          </g>
        </g>
        <path id="Path_56" data-name="Path 56" d="M219.328,83.71a26.022,26.022,0,0,1,3.007,9.623c.481,5.292,0,18.884-4.33,24.657s-13.351,4.09-17.441.6c-3.753-3.2-7.457-6.736-8.42-13.712s2.045-20.207,10.585-22.974,16.6,1.8,16.6,1.8" transform="translate(-80.368 -33.917)" fill="#ff9d8c"/>
        <path id="Path_57" data-name="Path 57" d="M234.9,280.1s-.424,0-1.07-.017c-.151-.006-.32,0-.494-.006-.622-.017-1.378-.035-2.139-.058l-.512-.017c-.756-.017-1.4.076-2.006.041h-.017c-.128-.006-.314.012-.465.017a1.127,1.127,0,0,1-.192.006,2.825,2.825,0,0,1-.8-.314,54.082,54.082,0,0,0-12.476-1.663c-5.372.023-10.191.39-10.976-.267s-1.267-7.418,3.32-7.86l5.639,2.139s12.877-1.529,17.6,1.953S234.9,280.1,234.9,280.1" transform="translate(-85.086 -113.018)" fill="#ff9d8c"/>
        <path id="Path_58" data-name="Path 58" d="M241.656,284.548c-.128-.006-.314.012-.465.017a5.455,5.455,0,0,0-.494-.663c-1.453-1.482-4.965-2.442-6.238-2.75a.219.219,0,0,1-.163-.262.223.223,0,0,1,.267-.163c1.855.448,5.79,1.593,6.907,3.471.035.052.128.233.186.349" transform="translate(-98.084 -117.523)" fill="#223a7a"/>
        <path id="Path_59" data-name="Path 59" d="M245.388,283.47c-.169,0-.344-.008-.512-.018-1.586-2.894-4.183-3.725-7.391-4.757l-.19-.063a.219.219,0,1,1,.138-.415l.185.063c3.393,1.088,6.122,1.963,7.771,5.19" transform="translate(-99.279 -116.469)" fill="#223a7a"/>
        <path id="Path_60" data-name="Path 60" d="M249.342,282.592c-.151,0-.32,0-.494-.006a12.677,12.677,0,0,0-8.362-6.2.219.219,0,0,1-.18-.255.225.225,0,0,1,.255-.174,12.984,12.984,0,0,1,8.782,6.634" transform="translate(-100.601 -115.527)" fill="#223a7a"/>
        <path id="Path_61" data-name="Path 61" d="M190.989,92.608A11.259,11.259,0,0,0,195.5,87.8a13.7,13.7,0,0,0,1.624-6.736,20.79,20.79,0,0,1,8.419.962c5.052,1.5,11.066,3.549,16.118.662s5.051-7.518,2.586-9.442c-2.761-2.155-8.24-.842-8.24-.842s2.105-2.045.963-3.247-5.293.361-5.293.361-5.052-4.029-14.614-3.549-14.133,7.157-14.674,14.614A41.289,41.289,0,0,0,184.554,95.5Z" transform="translate(-76.326 -27.6)" fill="#223a7a"/>
        <g id="Group_96" data-name="Group 96" transform="translate(131.59 66.67)" style="mix-blend-mode: multiply;isolation: isolate">
          <g id="Group_95" data-name="Group 95">
            <g id="Group_94" data-name="Group 94" clip-path="url(#clip-path-7)">
              <path id="Path_62" data-name="Path 62" d="M228.823,114.827a15.39,15.39,0,0,0-.665,4.3c-.106,1.1-.309,2.389.7,3.134.483.356,2.766,1.316,1.592,2.093a3.092,3.092,0,0,1-1.707.192c-.351-.017-.706-.031-1.056-.058-.377-.028-.747-.142-1.124-.144a.22.22,0,0,0-.11.406,4.749,4.749,0,0,0,2.206.524,3.329,3.329,0,0,0,1.826-.321,1.306,1.306,0,0,0,.834-.935,1.494,1.494,0,0,0-.719-1.288c-.455-.337-1.013-.494-1.472-.823-.637-.456-.584-1.224-.54-1.935.108-1.71.5-3.39.653-5.093.024-.26-.337-.26-.419-.057" transform="translate(-226.35 -114.68)" fill="#8e9bbb"/>
            </g>
          </g>
        </g>
        <path id="Path_63" data-name="Path 63" d="M237.127,120.31c-.18,1.014-.917,1.731-1.648,1.6s-1.177-1.056-1-2.07.917-1.731,1.648-1.6,1.177,1.056,1,2.07" transform="translate(-98.148 -49.494)" fill="#223a7a"/>
        <path id="Path_64" data-name="Path 64" d="M221.152,118.843c-.163,1.094-.934,1.885-1.721,1.768s-1.3-1.1-1.132-2.193.934-1.886,1.722-1.768,1.295,1.1,1.132,2.193" transform="translate(-91.376 -48.83)" fill="#223a7a"/>
        <path id="Path_65" data-name="Path 65" d="M235.078,113.582c.562.095,1.129,0,1.7.038.136.01.271.03.406.043.1.009-.18-.029-.045-.006l.087.014c.071.013.142.027.212.045.12.029.237.074.358.1a1.38,1.38,0,0,0,.342.044l.185-.024-.117.021a1.124,1.124,0,0,0,.23-.025.626.626,0,0,0,.432-.76.727.727,0,0,0-.123-.245c-.024-.031-.048-.063-.073-.094l.068.078c-.024-.034-.049-.066-.075-.1a.363.363,0,0,0-.128-.128c-.045-.034-.09-.071-.136-.1a1.635,1.635,0,0,0-.521-.21,4.3,4.3,0,0,0-1.034-.133,7.186,7.186,0,0,0-1.023.081,1.969,1.969,0,0,0-.877.324.582.582,0,0,0-.271.566.558.558,0,0,0,.407.472" transform="translate(-98.241 -46.946)" fill="#223a7a"/>
        <path id="Path_66" data-name="Path 66" d="M220.639,111.38a2.361,2.361,0,0,0-.235-.122c-.069-.031-.255-.129-.114-.052-.051-.028-.1-.056-.154-.083a3.553,3.553,0,0,0-.727-.26,4.834,4.834,0,0,0-1.689-.116,3.924,3.924,0,0,0-1.669.522,1.064,1.064,0,0,0-.21.149c-.041.052-.082.105-.121.158l.034-.052a.592.592,0,0,0-.252.49.489.489,0,0,0,.26.433.734.734,0,0,0,.584,0h-.3a1.091,1.091,0,0,0,.453,0c.006,0,.162-.04.059-.019s.164-.02.192-.024.214-.023.023,0l.105-.013c.091-.011.181-.022.273-.03.4-.031.793-.049,1.191-.062.369-.012.745-.015,1.114,0,.158.007.316.012.474.017.09,0,.051.016-.009,0,.032.01.066.016.1.025.066.019.13.04.194.064a.553.553,0,0,0,.659-.323.56.56,0,0,0-.228-.7" transform="translate(-90.219 -46.352)" fill="#223a7a"/>
        <path id="Path_67" data-name="Path 67" d="M225.842,138.685a5.439,5.439,0,0,1,2.717-2.446c-1.008-.1-5.766-.543-6.966.139-1.345.764.248,3.83,3.03,3.984a3.8,3.8,0,0,0,.811-.047,4.015,4.015,0,0,1,.408-1.63" transform="translate(-92.565 -56.937)" fill="#223a7a"/>
        <path id="Path_68" data-name="Path 68" d="M191.441,129.165s.481,1.864,3.247,4.029a32.061,32.061,0,0,0,6.776,3.749l.321-1.4s-4.15-1.8-6.075-3.789-2.165-3.067-2.165-3.067Z" transform="translate(-80.146 -53.873)" fill="#dee1eb"/>
        <path id="Path_69" data-name="Path 69" d="M208.692,138.689a3.478,3.478,0,0,1,3.624,2.8c.155,1.139-.914,2.416-3.417,1.294-3.109-1.393-2.433-3.986-.207-4.09" transform="translate(-86.572 -58.059)" fill="#223a7a"/>
        <path id="Path_70" data-name="Path 70" d="M190.846,89.4s.961-6.912,5.593-11.607c8.841-8.96,16.358-8.419,16.358-8.419s-.06-1.263-2.886-2.225c-2.654-.9-3.849-.421-3.849-.421a22.271,22.271,0,0,0-13.411,7.4,28.8,28.8,0,0,0-6.8,15.456Z" transform="translate(-77.807 -27.882)" fill="#dee1eb"/>
        <path id="Path_71" data-name="Path 71" d="M186.625,104.277c-5.791-.981-9.021,3.549-9.262,8.119s3.081,8.046,7.518,7.7c9.983-.782,8.841-14.614,1.744-15.817" transform="translate(-74.247 -43.598)" fill="#fff"/>
        <path id="Path_72" data-name="Path 72" d="M185.382,117.457a3.947,3.947,0,0,1-3.56-2.121,4.4,4.4,0,0,1,.169-4.545.218.218,0,1,1,.36.245,3.958,3.958,0,0,0-.147,4.091,3.5,3.5,0,0,0,3.288,1.892,3.817,3.817,0,0,0,3.158-1.7,4.819,4.819,0,0,0,.477-4.271,3.251,3.251,0,0,0-3.244-2.134.218.218,0,0,1-.058-.432,3.645,3.645,0,0,1,3.71,2.41,5.268,5.268,0,0,1-.523,4.669,4.242,4.242,0,0,1-3.508,1.9l-.123,0" transform="translate(-75.888 -45.403)" fill="#818fb3"/>
        <path id="Path_73" data-name="Path 73" d="M157.448,156.409s-17.561,4.33-23.7,11.306-9.021,41.377-9.141,47.751,4.33,9.021,6.976,10.825,14.314,5.051,23.7,5.533,18.283,0,18.283,0a12.5,12.5,0,0,1,1.413-5.051c1.339-2.789,3.037-3.368,3.037-3.368l-8.059-2.886s-1.411-25.285-3.608-37.528a108.775,108.775,0,0,0-8.9-26.582" transform="translate(-52.167 -65.48)" fill="#223a7a"/>
        <path id="Path_74" data-name="Path 74" d="M227.577,217.526a.291.291,0,0,1-.266-.408c1.645-3.713,3.35-11,4.31-16.113l.079-.413c.291-1.5.652-3.375-.069-4.665-.368-.659-1.2-2.088-2-3.461-.83-1.427-1.613-2.774-1.83-3.175-.424-.785.91-2.883,2.841-5.76.521-.778.972-1.449,1.235-1.9.688-1.191.23-2.281-.3-3.545l-.181-.435c-.481-1.18-1.027-2.363-1.555-3.506-.216-.467-.433-.935-.645-1.405q-.423-.933-.853-1.894a110.842,110.842,0,0,0-5.708-11.492.291.291,0,0,1,.5-.3,111.3,111.3,0,0,1,5.739,11.551q.431.959.852,1.892.32.7.644,1.4c.531,1.149,1.08,2.338,1.566,3.531l.178.43c.541,1.288,1.1,2.62.267,4.06-.273.472-.728,1.151-1.256,1.937-1.006,1.5-3.1,4.624-2.811,5.16.213.394.994,1.737,1.821,3.16.8,1.377,1.635,2.81,2,3.47.826,1.477.441,3.463.133,5.06l-.079.41c-.349,1.862-2.2,11.4-4.35,16.241a.29.29,0,0,1-.266.173" transform="translate(-93.188 -66.526)" fill="#8593b6"/>
        <path id="Path_75" data-name="Path 75" d="M190.98,217.855a.29.29,0,0,1-.206-.086c-1.367-1.377-7.958-12.79-8.448-14.936-.269-1.175.406-4.155,1.057-7.037.505-2.233,1.028-4.542.88-5.167-.223-.935-1.907-2.311-3.538-3.643-1.969-1.608-4-3.272-4.4-4.77-.448-1.7-.065-12.363.189-19.417.091-2.536.163-4.54.162-5.254a.291.291,0,0,1,.581,0c0,.726-.072,2.734-.163,5.276-.237,6.593-.634,17.627-.208,19.248.346,1.315,2.4,2.99,4.206,4.468,1.783,1.457,3.467,2.833,3.735,3.958.18.756-.31,2.922-.877,5.429-.608,2.688-1.3,5.733-1.059,6.78.481,2.1,6.952,13.3,8.295,14.655a.291.291,0,0,1-.206.5" transform="translate(-73.731 -65.833)" fill="#8593b6"/>
        <path id="Path_76" data-name="Path 76" d="M160.817,228.039l-.041,0a.291.291,0,0,1-.248-.328c.214-1.512,3.55-31.626,3.7-33.933a.287.287,0,0,1,.31-.271.29.29,0,0,1,.27.309c-.153,2.31-3.494,32.462-3.707,33.976a.292.292,0,0,1-.288.25" transform="translate(-67.203 -81.009)" fill="#8593b6"/>
        <path id="Path_77" data-name="Path 77" d="M180.336,258.936a.3.3,0,0,1-.109-.021c-.739-.3-4.006-1.4-8.141-2.8-8.348-2.815-19.779-6.67-21.954-7.8a.29.29,0,1,1,.268-.515c2.134,1.109,14.012,5.114,21.871,7.764,4.145,1.4,7.419,2.5,8.174,2.808a.291.291,0,0,1-.109.56" transform="translate(-62.786 -103.727)" fill="#8593b6"/>
        <path id="Path_78" data-name="Path 78" d="M171.818,283.487c-7.347,0-21.589-1.324-32.408-5.151a.291.291,0,0,1,.194-.549c13.668,4.835,32.787,5.661,36.345,4.862a.291.291,0,1,1,.127.567,23.191,23.191,0,0,1-4.258.27" transform="translate(-58.282 -116.287)" fill="#8593b6"/>
        <path id="Path_79" data-name="Path 79" d="M48.244,148.214c2.281,2.006,5.169,3.292,7.17,5.611.788.913,1.495,1.884,2.226,2.841.532.7,1.952,1.852,2.183,2.727.1.385.08-.137-.022-.523,0-.016-.013-.032-.017-.048-.2-1.773-.343-3.552-.4-5.335s.048-3.564-.063-5.339a8.487,8.487,0,0,0-2.986-6.5c-1-.767-2.287-1.234-3.207-2.085-.873-.808-.523-1.734-.009-2.635a8.975,8.975,0,0,0,1.25-2.643A4.666,4.666,0,0,0,53.6,131.1c-1.191-2-3.833-4.229-6.334-3.93-2.086.249-2.323,2.656-2.293,4.333.029,1.63.19,3.254.206,4.886.016,1.676-.269,3.32-.292,4.988a8.658,8.658,0,0,0,3.356,6.833" transform="translate(-18.791 -53.229)" fill="#6baeff"/>
        <path id="Path_80" data-name="Path 80" d="M64.565,182.928a26.77,26.77,0,0,1,2.259-4.307,33.165,33.165,0,0,0,3.417-5.847c.843-2.16.719-4.471.8-6.746.061-1.672.558-3.339.424-5.015-.065-.8-.528-2.1-1.568-1.971-.809.1-1.29,1.107-1.6,1.747a30.762,30.762,0,0,0-1.322,3.481c-.158.458-.308.926-.506,1.368-.116.258-.484.885-.831.8-.591-.146-.055-2.559.033-2.986a39.221,39.221,0,0,0,1.2-6.35c.134-3.2-.115-7.014-3.247-8.765a2.241,2.241,0,0,0-2.634-.046,4.385,4.385,0,0,0-1.1,2.81,19.25,19.25,0,0,0,1.294,8.54,24.71,24.71,0,0,1,1.783,7.125c.066,2.365-1.165,4.461-1.742,6.694a21.169,21.169,0,0,0-.734,6.6c-.006,1.444.047,2.873.152,4.314.1,1.324.212,2.648.374,3.965.033.267.063.545.1.824-.509-1.225-.687-2.628-1.107-3.859-.749-2.188-1.618-4.331-2.336-6.529a54.174,54.174,0,0,0-1.938-5.392,13.063,13.063,0,0,0-2.995-4.573,4.369,4.369,0,0,0-2.942-1.144,8.132,8.132,0,0,0-2.023.43,2.279,2.279,0,0,1-2.175-.383c-2.245-1.725-2.927-4.819-4.589-7-1.239-1.63-4.18-4.407-6.342-2.631-1.147.943-1.463,2.764-1.4,4.161a10.081,10.081,0,0,0,1.753,4.818c.97,1.558,2.222,2.953,3.113,4.554a4.837,4.837,0,0,1,.525,2.92,6.955,6.955,0,0,0,.177,2.948c1.028,2.913,4.242,2.506,6.741,2.582a18.7,18.7,0,0,1,5.285.873,5.875,5.875,0,0,1,3.853,3.792c.5,1.374.762,2.933,1.7,4.1a4.364,4.364,0,0,0,1.662,1.237c.975.431,3.946.618,3.968.347a13.327,13.327,0,0,1,.774-2.729c.506-1.617,1.1-3.193,1.756-4.755" transform="translate(-13.923 -61.908)" fill="#6baeff"/>
        <path id="Path_81" data-name="Path 81" d="M98.87,203.524c-.258-1.665-.209-3.5-1-5.029a.228.228,0,0,0-.307-.08c-.565.313-.589,1.226-.635,1.785-.077.928-.02,1.858-.134,2.783a20.871,20.871,0,0,1-1.162,4.833,5.2,5.2,0,0,1-3.617,3.257,9.159,9.159,0,0,0-3.166,1.4A6.67,6.67,0,0,0,87,215.03a38.347,38.347,0,0,0-2.266,8.348c-.365,1.885-.662,3.778-1.12,5.644a55.5,55.5,0,0,0-1.211,5.625c-.044.1-.091.191-.132.288-.12.285.326.439.48.2a18.726,18.726,0,0,1,7.009-6.808c1.356-.692,3.157-.835,4.288-1.922a3.759,3.759,0,0,0,.851-3.212,10.1,10.1,0,0,0-1.614-3.952,3.337,3.337,0,0,1-.72-2.273,2.931,2.931,0,0,1,1.468-1.782c1.248-.775,2.707-1.124,3.729-2.241a6.122,6.122,0,0,0,1.581-3.725,25.693,25.693,0,0,0-.466-5.7" transform="translate(-34.432 -83.053)" fill="#6baeff"/>
        <path id="Path_82" data-name="Path 82" d="M61.158,219.076a23.993,23.993,0,0,0-5.683-5.262c-1.155-.767-3.88-2.281-4.429-.017-.323,1.326.976,2.631,1.83,3.462a35.035,35.035,0,0,1,3.851,3.767c-1.341.428-2.742.511-3.908,1.438-1.379,1.1-2,3.218-.63,4.562a8.668,8.668,0,0,0,2.381,1.459c1.079.523,2.178,1,3.284,1.458a27.727,27.727,0,0,1,6.843,3.643c2.075,1.666,4.026,4.481,4.191,7.2.016.259-.082.023.073-.1.084.076.369-.06.367-.212a28.66,28.66,0,0,0-2.414-11.563,48.288,48.288,0,0,0-5.755-9.838" transform="translate(-21.349 -89.005)" fill="#6baeff"/>
        <path id="Path_83" data-name="Path 83" d="M58.991,158.99c.88,1.825,1.8,3.608,2.775,5.387a43.375,43.375,0,0,1,2.581,5.242c.866,2.251,1.773,4.468,2.688,6.7a66.11,66.11,0,0,1,2.484,7.093,84.19,84.19,0,0,1,2.809,14.424,58.581,58.581,0,0,1,.293,7.455c-.053,1.944-.272,3.868-.455,5.8a34.366,34.366,0,0,0-.159,6.069c.141,1.688.409,3.7,1.72,4.9a.3.3,0,0,0,.471-.363c-1.557-3.193-1.47-6.673-1.172-10.136.164-1.911.392-3.813.456-5.731a57.382,57.382,0,0,0-.244-7.318A86.594,86.594,0,0,0,70.6,184.376a63.79,63.79,0,0,0-2.322-6.994c-.906-2.292-1.952-4.522-2.829-6.826-1.588-4.167-4.007-7.861-6.15-11.744-.111-.2-.4-.024-.306.179" transform="translate(-24.688 -66.448)" fill="#43578e"/>
        <path id="Path_84" data-name="Path 84" d="M81.883,205.681a34.486,34.486,0,0,1,1.543-8.851c.477-1.35,1.055-2.663,1.516-4.018.38-1.12.949-2.657.656-3.847a.137.137,0,0,0-.263,0c-.2.68-.174,1.426-.315,2.123a18.809,18.809,0,0,1-.532,2c-.449,1.4-1.035,2.746-1.544,4.126a20.42,20.42,0,0,0-1.271,8.462.1.1,0,0,0,.209,0" transform="translate(-34.172 -79.069)" fill="#43578e"/>
        <path id="Path_85" data-name="Path 85" d="M51.816,187.65c1.2,2.91,4.825,3.077,7.462,3.729a7,7,0,0,1,4.271,3.353,25.623,25.623,0,0,1,2.439,5.87.018.018,0,0,0,.035-.009c-.737-3.488-1.794-7.687-5.389-9.309-2.881-1.3-6.677-.648-8.519-3.759-.091-.153-.373-.05-.3.126" transform="translate(-21.687 -78.474)" fill="#43578e"/>
        <path id="Path_86" data-name="Path 86" d="M78.789,216.953c.143.194.274.4.423.585a1.575,1.575,0,0,0,.24.258.56.56,0,0,0,.335.171.073.073,0,0,0,.063-.109,1.153,1.153,0,0,0-.251-.23c-.086-.076-.174-.151-.258-.23-.168-.159-.322-.332-.487-.495-.031-.031-.092.011-.064.049" transform="translate(-32.981 -90.801)" fill="#43578e"/>
        <path id="Path_87" data-name="Path 87" d="M65.8,232.68a29.308,29.308,0,0,1,5.516,5.934,35.885,35.885,0,0,1,2.01,3.3,36.891,36.891,0,0,1,1.624,3.831c.04.1.219.1.205-.028-.289-2.736-2.022-5.082-3.41-7.358a17.545,17.545,0,0,0-2.582-3.122,22.915,22.915,0,0,0-3.177-2.8c-.142-.1-.323.131-.187.242" transform="translate(-27.528 -97.298)" fill="#43578e"/>
        <path id="Path_88" data-name="Path 88" d="M89.831,227.315c-1,.567-1.033,2.148-1.053,3.157-.038,1.939.442,3.76-.409,5.608a43.653,43.653,0,0,1-2.962,4.611,10.039,10.039,0,0,0-1.775,5.052c0,.1.156.157.2.054a21.043,21.043,0,0,0,.755-2.523,10.588,10.588,0,0,1,1.232-2.6,42.675,42.675,0,0,0,2.823-4.3,10.1,10.1,0,0,0,.626-5.015c-.033-1.128-.147-2.939.763-3.778.142-.131-.04-.356-.2-.264" transform="translate(-35.012 -95.155)" fill="#43578e"/>
        <path id="Path_89" data-name="Path 89" d="M74.355,259.268c-4.031-.056-11.708-.1-11.708-.1l1.9,14.1a6.4,6.4,0,0,0,6.338,5.541h6.94a6.4,6.4,0,0,0,6.338-5.541l1.9-14.1s-7.677.044-11.707.1" transform="translate(-26.227 -108.499)" fill="#fff"/>
        <path id="Path_90" data-name="Path 90" d="M353.057,214.292l-22.994,45.546-67.036.481,20.688-46.668Z" transform="translate(-110.115 -89.443)" fill="#f6f7fa"/>
        <path id="Path_91" data-name="Path 91" d="M186.5,259.285l.013-3.646h43.4l19.966-43.782h69.4l1.744,1.684h-67.8l-20.749,45.707s-45.974-.083-45.974.037" transform="translate(-78.076 -88.693)" fill="#dadee8"/>
        <path id="Path_92" data-name="Path 92" d="M346.676,254.88c-.757,2.272-4.868,4.026-9.181,3.918s-7.2-2.037-6.439-4.309,4.868-4.026,9.181-3.918,7.2,2.037,6.439,4.309" transform="translate(-138.544 -104.898)" fill="#dadee8"/>
        <path id="Path_93" data-name="Path 93" d="M265.37,260.542a.3.3,0,0,1-.12-.026.291.291,0,0,1-.144-.385l20.825-45.877h67.986a.291.291,0,1,1,0,.581H286.306l-20.671,45.536a.291.291,0,0,1-.264.17" transform="translate(-110.974 -89.696)" fill="#fff"/>
        <rect id="Rectangle_95" data-name="Rectangle 95" width="79.746" height="17.681" transform="translate(25.655 174.044)" fill="#596b9b"/>
        <rect id="Rectangle_96" data-name="Rectangle 96" width="143.478" height="17.681" transform="translate(104.946 174.044)" fill="#7a89af"/>
        <g id="Group_99" data-name="Group 99" transform="translate(25.655 174.043)" style="mix-blend-mode: multiply;isolation: isolate">
          <g id="Group_98" data-name="Group 98">
            <g id="Group_97" data-name="Group 97" clip-path="url(#clip-path-8)">
              <path id="Path_94" data-name="Path 94" d="M123.876,299.375H44.13v3.247H266.9v-3.247Z" transform="translate(-44.13 -299.375)" fill="#bdc4d7"/>
            </g>
          </g>
        </g>
        <rect id="Rectangle_98" data-name="Rectangle 98" width="87.083" height="4.33" transform="translate(21.807 170.555)" fill="#6f7fa9"/>
        <rect id="Rectangle_99" data-name="Rectangle 99" width="143.478" height="4.33" transform="translate(108.434 170.555)" fill="#9ca6c3"/>
        <path id="Path_95" data-name="Path 95" d="M124.126,119.14H95.974a3.155,3.155,0,0,1-3.154-3.154V101.932a3.155,3.155,0,0,1,3.154-3.155h28.152a3.155,3.155,0,0,1,3.154,3.155v14.054a3.154,3.154,0,0,1-3.154,3.154" transform="translate(-38.858 -41.352)" fill="#fff"/>
        <path id="Path_96" data-name="Path 96" d="M158.283,113.078l-10.573-4.461v8.923Z" transform="translate(-61.838 -45.472)" fill="#fff"/>
        <path id="Path_97" data-name="Path 97" d="M111.515,114.888a1.948,1.948,0,1,1-1.948-1.948,1.948,1.948,0,0,1,1.948,1.948" transform="translate(-45.054 -47.282)" fill="#223a7a"/>
        <path id="Path_98" data-name="Path 98" d="M123,114.888a1.948,1.948,0,1,1-1.948-1.948A1.948,1.948,0,0,1,123,114.888" transform="translate(-49.864 -47.282)" fill="#223a7a"/>
        <path id="Path_99" data-name="Path 99" d="M134.491,114.888a1.948,1.948,0,1,1-1.948-1.948,1.948,1.948,0,0,1,1.948,1.948" transform="translate(-54.673 -47.282)" fill="#223a7a"/>
        <path id="Path_100" data-name="Path 100" d="M340.955,24.409H275.964a7.557,7.557,0,0,0-7.558,7.558V62.8a7.558,7.558,0,0,0,7.558,7.558h5.825a26.693,26.693,0,0,1-2.57,12.268,32.653,32.653,0,0,0,14.09-12.268h47.646a7.558,7.558,0,0,0,7.558-7.558V31.967a7.557,7.557,0,0,0-7.558-7.558" transform="translate(-112.366 -10.219)" fill="#60a8ff"/>
        <path id="Path_101" data-name="Path 101" d="M321.141,47.375H288.906a1.6,1.6,0,1,1,0-3.207h32.235a1.6,1.6,0,1,1,0,3.207" transform="translate(-120.277 -18.491)" fill="#fff"/>
        <path id="Path_102" data-name="Path 102" d="M344.255,64.339H288.284a.982.982,0,1,1,0-1.964h55.971a.982.982,0,1,1,0,1.964" transform="translate(-120.277 -26.113)" fill="#d2e6ff"/>
        <path id="Path_103" data-name="Path 103" d="M344.255,73.718H288.284a.982.982,0,1,1,0-1.964h55.971a.982.982,0,1,1,0,1.964" transform="translate(-120.277 -30.039)" fill="#d2e6ff"/>
        <path id="Path_104" data-name="Path 104" d="M332.047,83.718H288.285a.982.982,0,0,1,0-1.964h43.762a.982.982,0,1,1,0,1.964" transform="translate(-120.278 -34.226)" fill="#d2e6ff"/>
        <path id="Path_105" data-name="Path 105" d="M372.284,47.375H356.906a1.6,1.6,0,0,1,0-3.207h15.377a1.6,1.6,0,1,1,0,3.207" transform="translate(-148.745 -18.491)" fill="#fff"/>
        <path id="Path_106" data-name="Path 106" d="M304.435,161.386h-17.46a1.162,1.162,0,0,1-1.163-1.163V148.3a1.162,1.162,0,0,1,1.163-1.163h17.46A1.162,1.162,0,0,1,305.6,148.3v11.928a1.162,1.162,0,0,1-1.163,1.163" transform="translate(-119.653 -61.596)" fill="#fff"/>
        <path id="Path_107" data-name="Path 107" d="M295.879,156.624a.435.435,0,0,1-.278-.1l-9.5-7.848a.436.436,0,1,1,.555-.673l9.217,7.613,8.983-7.816a.436.436,0,0,1,.572.658l-9.262,8.059a.435.435,0,0,1-.286.107" transform="translate(-119.707 -61.831)" fill="#6f7fa9"/>
        <path id="Path_108" data-name="Path 108" d="M286.376,165.431a.435.435,0,0,1-.316-.736l6.646-6.987a.436.436,0,1,1,.631.6l-6.646,6.987a.433.433,0,0,1-.316.135" transform="translate(-119.707 -65.967)" fill="#6f7fa9"/>
        <path id="Path_109" data-name="Path 109" d="M313.885,165.243a.434.434,0,0,1-.309-.128l-6.619-6.637a.436.436,0,0,1,.617-.616l6.619,6.637a.436.436,0,0,1-.309.744" transform="translate(-128.453 -66.034)" fill="#6f7fa9"/>
        <path id="Path_110" data-name="Path 110" d="M323.038,142.173a5.834,5.834,0,1,1-5.833-5.834,5.833,5.833,0,0,1,5.833,5.834" transform="translate(-130.353 -57.077)" fill="#ff5f42"/>
      </g>
    </g>
    <text id="_85" data-name="85" transform="translate(182.751 85)" fill="#fff" font-size="5" font-family="SegoeUI, Segoe UI"><tspan x="0" y="0">85</tspan></text>
    <g id="Group_103" data-name="Group 103">
      <g id="Group_102" data-name="Group 102" clip-path="url(#clip-path)">
        <path id="Path_111" data-name="Path 111" d="M395.973,135.492h-34.08a2.326,2.326,0,0,1-2.325-2.325v-5.332a2.325,2.325,0,0,1,2.325-2.325h34.08a2.325,2.325,0,0,1,2.325,2.325v5.332a2.326,2.326,0,0,1-2.325,2.325" transform="translate(-150.531 -52.544)" fill="#223a7a"/>
        <path id="Path_112" data-name="Path 112" d="M366.108,134.828a.459.459,0,0,1-.368-.163.549.549,0,0,1-.123-.409l.148-1.292c.01-.033.005-.055-.016-.066a.083.083,0,0,0-.082.016l-1.063.769a.5.5,0,0,1-.409.106.508.508,0,0,1-.344-.253.5.5,0,0,1-.058-.458.526.526,0,0,1,.3-.278l1.195-.54c.033-.011.049-.027.049-.049s-.016-.038-.049-.049l-1.195-.54a.487.487,0,0,1-.295-.311.537.537,0,0,1,.049-.425.513.513,0,0,1,.344-.254.537.537,0,0,1,.409.09l1.063.785a.081.081,0,0,0,.082.016c.022-.01.027-.033.016-.065l-.148-1.293a.531.531,0,0,1,.131-.409.5.5,0,0,1,.392-.164.486.486,0,0,1,.491.573l-.147,1.293c-.011.033-.006.055.017.065a.08.08,0,0,0,.081-.016l1.064-.769a.516.516,0,0,1,.417-.106.466.466,0,0,1,.335.254.493.493,0,0,1,.057.458.526.526,0,0,1-.3.278l-1.194.54c-.033.011-.049.027-.049.049s.016.038.049.049l1.194.54a.515.515,0,0,1,.3.31.479.479,0,0,1-.057.426.463.463,0,0,1-.335.253.549.549,0,0,1-.417-.09l-1.064-.786a.083.083,0,0,0-.081-.016c-.023.011-.028.033-.017.066l.147,1.292a.472.472,0,0,1-.122.409.532.532,0,0,1-.4.163" transform="translate(-152.285 -54.253)" fill="#fff"/>
        <path id="Path_113" data-name="Path 113" d="M378.233,134.828a.459.459,0,0,1-.368-.163.549.549,0,0,1-.123-.409l.148-1.292c.01-.033.005-.055-.016-.066a.083.083,0,0,0-.082.016l-1.063.769a.5.5,0,0,1-.409.106.508.508,0,0,1-.344-.253.5.5,0,0,1-.058-.458.526.526,0,0,1,.3-.278l1.195-.54c.033-.011.049-.027.049-.049s-.016-.038-.049-.049l-1.195-.54a.487.487,0,0,1-.295-.311.537.537,0,0,1,.049-.425.513.513,0,0,1,.344-.254.537.537,0,0,1,.409.09l1.063.785a.081.081,0,0,0,.082.016c.022-.01.027-.033.016-.065l-.148-1.293a.531.531,0,0,1,.131-.409.5.5,0,0,1,.392-.164.486.486,0,0,1,.491.573l-.147,1.293c-.011.033-.006.055.017.065a.08.08,0,0,0,.081-.016l1.064-.769a.516.516,0,0,1,.417-.106.468.468,0,0,1,.335.254.491.491,0,0,1,.057.458.526.526,0,0,1-.3.278l-1.194.54c-.033.011-.049.027-.049.049s.016.038.049.049l1.194.54a.515.515,0,0,1,.3.31.479.479,0,0,1-.057.426.464.464,0,0,1-.335.253.55.55,0,0,1-.417-.09l-1.064-.786a.083.083,0,0,0-.081-.016c-.023.011-.028.033-.017.066l.147,1.292a.472.472,0,0,1-.122.409.532.532,0,0,1-.4.163" transform="translate(-157.361 -54.253)" fill="#fff"/>
        <path id="Path_114" data-name="Path 114" d="M390.357,134.828a.459.459,0,0,1-.368-.163.549.549,0,0,1-.123-.409l.148-1.292c.01-.033.005-.055-.016-.066a.083.083,0,0,0-.082.016l-1.063.769a.5.5,0,0,1-.409.106.508.508,0,0,1-.344-.253.5.5,0,0,1-.058-.458.526.526,0,0,1,.3-.278l1.195-.54c.033-.011.049-.027.049-.049s-.016-.038-.049-.049l-1.195-.54a.488.488,0,0,1-.295-.311.538.538,0,0,1,.049-.425.513.513,0,0,1,.344-.254.537.537,0,0,1,.409.09l1.063.785a.081.081,0,0,0,.082.016c.022-.01.027-.033.016-.065l-.148-1.293a.531.531,0,0,1,.131-.409.5.5,0,0,1,.392-.164.486.486,0,0,1,.491.573l-.147,1.293c-.011.033-.006.055.017.065a.08.08,0,0,0,.081-.016l1.064-.769a.516.516,0,0,1,.417-.106.467.467,0,0,1,.335.254.493.493,0,0,1,.057.458.526.526,0,0,1-.3.278l-1.194.54c-.033.011-.049.027-.049.049s.016.038.049.049l1.194.54a.515.515,0,0,1,.3.31.478.478,0,0,1-.057.426.463.463,0,0,1-.335.253.549.549,0,0,1-.417-.09l-1.064-.786a.083.083,0,0,0-.081-.016c-.023.011-.028.033-.017.066l.147,1.292a.472.472,0,0,1-.122.409.532.532,0,0,1-.4.163" transform="translate(-162.437 -54.253)" fill="#fff"/>
        <path id="Path_115" data-name="Path 115" d="M402.482,134.828a.459.459,0,0,1-.368-.163.549.549,0,0,1-.123-.409l.148-1.292c.01-.033.005-.055-.016-.066a.083.083,0,0,0-.082.016l-1.063.769a.5.5,0,0,1-.409.106.508.508,0,0,1-.344-.253.5.5,0,0,1-.058-.458.526.526,0,0,1,.3-.278l1.195-.54c.033-.011.049-.027.049-.049s-.016-.038-.049-.049l-1.195-.54a.487.487,0,0,1-.295-.311.538.538,0,0,1,.049-.425.513.513,0,0,1,.344-.254.537.537,0,0,1,.409.09l1.063.785a.081.081,0,0,0,.082.016c.022-.01.027-.033.016-.065l-.148-1.293a.531.531,0,0,1,.131-.409.5.5,0,0,1,.392-.164.486.486,0,0,1,.491.573l-.147,1.293c-.011.033-.006.055.017.065a.08.08,0,0,0,.081-.016l1.064-.769a.516.516,0,0,1,.417-.106.467.467,0,0,1,.335.254.491.491,0,0,1,.057.458.526.526,0,0,1-.3.278l-1.194.54c-.033.011-.049.027-.049.049s.016.038.049.049l1.194.54a.515.515,0,0,1,.3.31.478.478,0,0,1-.057.426.463.463,0,0,1-.335.253.549.549,0,0,1-.417-.09l-1.064-.786a.083.083,0,0,0-.081-.016c-.023.011-.028.033-.017.066l.147,1.292a.472.472,0,0,1-.122.409.532.532,0,0,1-.4.163" transform="translate(-167.513 -54.253)" fill="#fff"/>
        <path id="Path_116" data-name="Path 116" d="M414.607,134.828a.459.459,0,0,1-.368-.163.549.549,0,0,1-.123-.409l.148-1.292c.01-.033.005-.055-.016-.066a.083.083,0,0,0-.082.016l-1.063.769a.5.5,0,0,1-.409.106.509.509,0,0,1-.344-.253.5.5,0,0,1-.058-.458.526.526,0,0,1,.3-.278l1.195-.54c.033-.011.049-.027.049-.049s-.016-.038-.049-.049l-1.195-.54a.488.488,0,0,1-.295-.311.538.538,0,0,1,.049-.425.513.513,0,0,1,.344-.254.537.537,0,0,1,.409.09l1.063.785a.081.081,0,0,0,.082.016c.021-.01.027-.033.016-.065l-.148-1.293a.531.531,0,0,1,.131-.409.5.5,0,0,1,.392-.164.486.486,0,0,1,.491.573l-.147,1.293c-.011.033-.006.055.017.065a.08.08,0,0,0,.081-.016l1.064-.769a.516.516,0,0,1,.417-.106.466.466,0,0,1,.335.254.491.491,0,0,1,.057.458.526.526,0,0,1-.3.278l-1.194.54c-.033.011-.049.027-.049.049s.017.038.049.049l1.194.54a.515.515,0,0,1,.3.31.478.478,0,0,1-.057.426.463.463,0,0,1-.335.253.549.549,0,0,1-.417-.09l-1.064-.786A.083.083,0,0,0,415,132.9c-.023.011-.028.033-.017.066l.147,1.292a.472.472,0,0,1-.122.409.532.532,0,0,1-.4.163" transform="translate(-172.589 -54.253)" fill="#67acff"/>
      </g>
    </g>
  </g>
</svg>
