<svg id="Home" xmlns="http://www.w3.org/2000/svg" width="24" height="24" viewBox="0 0 24 24">
  <g id="Home-2" data-name="Home">
    <rect id="Rectangle_4" data-name="Rectangle 4" width="24" height="24" fill="red" opacity="0"/>
  </g>
  <path id="Path_22161" data-name="Path 22161" d="M23.108,8.909A5.137,5.137,0,0,0,17,6.582,6.224,6.224,0,0,0,13.648,8.96,6.224,6.224,0,0,0,10.3,6.582,5.149,5.149,0,0,0,4.189,8.909C3,11.337,3.5,14.068,5.652,17.026a38.33,38.33,0,0,0,7.612,7.385.631.631,0,0,0,.776,0,37.645,37.645,0,0,0,7.612-7.385C23.8,14.068,24.293,11.337,23.108,8.909Z" transform="translate(-1.649 -3.442)" fill="rgba(199,199,204,0)" stroke="#bcbcbc" stroke-width="1.4"/>
</svg>
