<svg xmlns="http://www.w3.org/2000/svg" width="24" height="24" viewBox="0 0 24 24">
  <g id="Group_23125" data-name="Group 23125" transform="translate(3293 12697)">
    <g id="Home" transform="translate(-3293 -12697)">
      <g id="Home-2" data-name="Home">
        <rect id="Rectangle_4" data-name="Rectangle 4" width="24" height="24" fill="#bcbcbc" opacity="0"/>
      </g>
    </g>
    <path id="home-svgrepo-com" d="M9.685,22.633H7.343A2.343,2.343,0,0,1,5,20.29V12a2.343,2.343,0,0,1,.818-1.779L11.675,5.2a2.343,2.343,0,0,1,3.049,0l5.857,5.02A2.343,2.343,0,0,1,21.4,12v8.29a2.343,2.343,0,0,1-2.343,2.343H16.713m-7.028,0V15.6a1.171,1.171,0,0,1,1.171-1.171h4.685A1.171,1.171,0,0,1,16.713,15.6v7.028m-7.028,0h7.028" transform="translate(-3294.199 -12698.633)" fill="none" stroke="#bcbcbc" stroke-linecap="round" stroke-linejoin="round" stroke-width="1.5"/>
  </g>
</svg>
