<svg xmlns="http://www.w3.org/2000/svg" xmlns:xlink="http://www.w3.org/1999/xlink" width="48" height="48" viewBox="0 0 48 48">
  <defs>
    <clipPath id="clip-path">
      <rect id="Rectangle_18" data-name="Rectangle 18" width="48" height="48" transform="translate(-0.191 -0.191)" fill="#fff" stroke="#707070" stroke-width="1"/>
    </clipPath>
  </defs>
  <g id="Information_Road_Signs" data-name="Information Road Signs" transform="translate(0.191 0.191)" clip-path="url(#clip-path)">
    <g id="Group_15" data-name="Group 15" transform="translate(-0.018 -0.018)">
      <g id="Layer_10" data-name="Layer 10" transform="translate(0 0)">
        <path id="Path_142" data-name="Path 142" d="M47.013,9.712l-.007-.071A10.149,10.149,0,0,0,37.963.6c-3.4-.353-9-.532-14.249-.532S12.866.25,9.471.6A10.144,10.144,0,0,0,.423,9.642l-.007.071A56.389,56.389,0,0,0-.11,18.92a64.407,64.407,0,0,0,.526,9.714l.007.07a10.144,10.144,0,0,0,9.048,9.039c1.873.2,4.416.337,7.2.425l5.405,8.583a2.07,2.07,0,0,0,3.5,0l5.41-8.591c2.694-.088,5.148-.228,6.969-.418A10.144,10.144,0,0,0,47.006,28.7l.007-.071a64.576,64.576,0,0,0,.525-9.714,56.573,56.573,0,0,0-.525-9.207Z" transform="translate(0.11 -0.07)" fill="#f9973e"/>
        <path id="Path_143" data-name="Path 143" d="M.423,28.7A10.175,10.175,0,0,0,.73,30.331a25.848,25.848,0,0,0,10.337,2.14A25.932,25.932,0,0,0,37,6.539,26.046,26.046,0,0,0,36.281.454C32.884.2,28.176.07,23.718.07,18.465.07,12.87.25,9.479.6A10.144,10.144,0,0,0,.423,9.642l-.007.071A56.389,56.389,0,0,0-.11,18.92a64.407,64.407,0,0,0,.526,9.714Z" transform="translate(0.11 -0.07)" fill="#fca84c"/>
        <path id="Path_144" data-name="Path 144" d="M225.073,100.224a3.159,3.159,0,1,1,3.164-3.159A3.159,3.159,0,0,1,225.073,100.224Zm3.065-10.878a2.125,2.125,0,0,1-.626,1.286,2.193,2.193,0,0,1-1.311.613h-.015a8.111,8.111,0,0,1-.931.054,10.537,10.537,0,0,1-1.117-.054h-.015a2.193,2.193,0,0,1-1.311-.613,2.121,2.121,0,0,1-.624-1.286c-.075-.712-.114-5.663-.114-6.766s.038-6.067.114-6.779a2.121,2.121,0,0,1,.624-1.286,2.194,2.194,0,0,1,1.311-.613h.015a8.075,8.075,0,0,1,1.117-.034,5.589,5.589,0,0,1,.931.034h.015a2.193,2.193,0,0,1,1.311.613,2.125,2.125,0,0,1,.624,1.286c.075.713.114,5.677.114,6.779S228.213,88.633,228.138,89.346Z" transform="translate(-201.257 -66.995)" fill="#fff"/>
      </g>
    </g>
  </g>
</svg>
