<svg xmlns="http://www.w3.org/2000/svg" xmlns:xlink="http://www.w3.org/1999/xlink" width="48" height="48" viewBox="0 0 48 48">
  <defs>
    <clipPath id="clip-path">
      <rect id="Rectangle_16" data-name="Rectangle 16" width="48" height="48" transform="translate(-0.191 -0.191)" fill="#fff" stroke="#707070" stroke-width="1"/>
    </clipPath>
  </defs>
  <g id="Instructions" transform="translate(0.191 0.191)" clip-path="url(#clip-path)">
    <g id="Group_11" data-name="Group 11" transform="translate(-0.018 0.375)">
      <path id="Path_126" data-name="Path 126" d="M43.639,149.1H3.233V120H0v32.325H19.67a1.654,1.654,0,0,1,1.536.946,2.424,2.424,0,0,0,4.461,0,1.654,1.654,0,0,1,1.536-.946h19.67V120H43.639Zm0,0" transform="translate(0 -107.881)" fill="#254b6f"/>
      <path id="Path_127" data-name="Path 127" d="M32,88H72.407v32.325H32Zm0,0" transform="translate(-28.767 -79.113)" fill="#efeadd"/>
      <path id="Path_128" data-name="Path 128" d="M64,168H76.93v9.7H64Zm0,0" transform="translate(-57.535 -151.032)" fill="#326fc0"/>
      <path id="Path_129" data-name="Path 129" d="M142.613,11.307a11.321,11.321,0,0,1-7.807,10.756L131.3,28.335l-3.507-6.271a11.314,11.314,0,1,1,14.821-10.756Zm0,0" transform="translate(-107.864 0.008)" fill="#f2b134"/>
      <path id="Path_130" data-name="Path 130" d="M264,304h13.738v6.465H264Zm0,0" transform="translate(-237.331 -273.294)" fill="#e74c3c"/>
      <path id="Path_131" data-name="Path 131" d="M216,53.661h3.233v8.081H216Zm3.233-4.041A1.616,1.616,0,1,1,217.616,48,1.616,1.616,0,0,1,219.233,49.62Zm0,0" transform="translate(-194.18 -43.154)" fill="#ee2820"/>
      <path id="Path_132" data-name="Path 132" d="M32,208v20.2H50.587C40.313,228.207,32,219.171,32,208Zm0,0" transform="translate(-28.767 -186.991)" fill="#d7d3c7"/>
      <g id="Group_10" data-name="Group 10" transform="translate(5.657 16.972)">
        <path id="Path_133" data-name="Path 133" d="M56,180.126h1.616v1.616H56Zm3.233,0H70.546v1.616H59.233ZM56,183.359h1.616v1.616H56Zm3.233,0H70.546v1.616H59.233ZM56,186.591h1.616v1.616H56Zm3.233,0H70.546v1.616H59.233ZM80.244,177.7H90.75v1.616H80.244Zm0-3.233H90.75v1.616H80.244Zm4.041-3.232H90.75v1.616H84.285ZM85.9,168H90.75v1.616H85.9Zm0,0" transform="translate(-56 -168.004)" fill="#f26158"/>
      </g>
    </g>
  </g>
</svg>
