<svg xmlns="http://www.w3.org/2000/svg" xmlns:xlink="http://www.w3.org/1999/xlink" width="48" height="48" viewBox="0 0 48 48">
  <defs>
    <clipPath id="clip-path">
      <rect id="Rectangle_15" data-name="Rectangle 15" width="48" height="48" transform="translate(-0.191 -0.191)" fill="#fff" stroke="#707070" stroke-width="1"/>
    </clipPath>
  </defs>
  <g id="Motorway_Road_Signs" data-name="Motorway Road Signs" transform="translate(0.191 0.191)" clip-path="url(#clip-path)">
    <g id="Group_19" data-name="Group 19" transform="translate(0.064 -0.018)">
      <path id="Path_145" data-name="Path 145" d="M50.545,75.605H7.252L18.7,44.375H39.092Z" transform="translate(-5.153 -28.115)" fill="#49566d"/>
      <path id="Path_146" data-name="Path 146" d="M1.75,1.747H49.241v16.26H1.75Z" transform="translate(-1.75 -1.747)" fill="#7dd5f4"/>
      <path id="Path_147" data-name="Path 147" d="M46.73,44.375V65.2l3.815,10.4V44.375Zm-35.663,0V65.2l-3.815,10.4V44.375Z" transform="translate(-5.153 -28.115)" fill="#ccc"/>
      <path id="Path_148" data-name="Path 148" d="M9.75,9.747H39.861V19.9H9.75Z" transform="translate(-6.698 -6.695)" fill="#6ba7ff"/>
      <path id="Path_149" data-name="Path 149" d="M40.675,21.542H16.668a.668.668,0,1,1,0-1.335H40.675a.668.668,0,0,1,0,1.335Zm0-3.551H16.668a.668.668,0,1,1,0-1.335H40.675a.668.668,0,0,1,0,1.335Z" transform="translate(-10.564 -10.969)" fill="#49566d"/>
      <path id="Path_150" data-name="Path 150" d="M88.687,9.747H99.964V19.9H88.687Z" transform="translate(-55.525 -6.695)" fill="#f4f1f1"/>
      <path id="Path_151" data-name="Path 151" d="M101.648,17.129,99.7,15.18a.678.678,0,0,0-.944,0l-1.949,1.949a.667.667,0,1,0,.945.943l.809-.81v3.224a.668.668,0,0,0,1.335,0V17.262l.809.809a.667.667,0,0,0,.944-.944Z" transform="translate(-60.426 -9.938)" fill="#00dd80"/>
      <g id="Group_16" data-name="Group 16" transform="translate(22.22 16.26)">
        <path id="Path_152" data-name="Path 152" d="M61.526,49.553A1.526,1.526,0,0,1,60,48.027V44.375h3.052v3.652A1.526,1.526,0,0,1,61.526,49.553Zm0,13.027A1.526,1.526,0,0,1,60,61.054V58.927a1.526,1.526,0,1,1,3.052,0v2.127A1.526,1.526,0,0,1,61.526,62.58Zm1.526,13.025H60V71.953a1.526,1.526,0,0,1,3.052,0Z" transform="translate(-60 -44.375)" fill="#393647"/>
      </g>
    </g>
  </g>
</svg>
