<svg xmlns="http://www.w3.org/2000/svg" xmlns:xlink="http://www.w3.org/1999/xlink" width="48" height="48" viewBox="0 0 48 48">
  <defs>
    <clipPath id="clip-path">
      <rect id="Rectangle_151" data-name="Rectangle 151" width="48" height="48" transform="translate(222 702)" fill="#fff" stroke="#707070" stroke-width="1"/>
    </clipPath>
  </defs>
  <g id="National_Highway_signs" data-name="National Highway signs" transform="translate(-222 -702)" clip-path="url(#clip-path)">
    <g id="Group_136" data-name="Group 136" transform="translate(176.954 703)">
      <path id="Path_220" data-name="Path 220" d="M91.065,47H47.028a.578.578,0,0,1-.506-.225.629.629,0,0,1-.141-.534L54.082-.41A.745.745,0,0,1,54.756-1H83.674a.671.671,0,0,1,.674.59l7.363,46.651a.629.629,0,0,1-.141.534A.578.578,0,0,1,91.065,47Z" transform="translate(0)" fill="#ffbe00" fill-rule="evenodd"/>
      <path id="Path_221" data-name="Path 221" d="M310.941,48.944H280.028a.61.61,0,0,1-.506-.225.629.629,0,0,1-.141-.534L284.805,1.59a.642.642,0,0,1,.646-.59h20.262a.673.673,0,0,1,.675.618l5.227,46.595a.72.72,0,0,1-.169.534A.637.637,0,0,1,310.941,48.944Z" transform="translate(-226.452 -1.944)" fill="#435b6c" fill-rule="evenodd"/>
      <g id="Group_135" data-name="Group 135" transform="translate(68.217 0.377)">
        <path id="Path_222" data-name="Path 222" d="M824,55.335h3.035V48H824Zm0,12.646h3.035V60.646H824Zm0,12.646h3.035V73.293H824Zm0,12.646h3.035V85.939H824Z" transform="translate(-824 -48)" fill="#fff" fill-rule="evenodd"/>
      </g>
    </g>
  </g>
</svg>
