<svg xmlns="http://www.w3.org/2000/svg" xmlns:xlink="http://www.w3.org/1999/xlink" width="48" height="48" viewBox="0 0 48 48">
  <defs>
    <clipPath id="clip-path">
      <rect id="Rectangle_17" data-name="Rectangle 17" width="48" height="48" transform="translate(-0.191 -0.191)" fill="#fff" stroke="#707070" stroke-width="1"/>
    </clipPath>
  </defs>
  <g id="Warning_Road_Sign" data-name="Warning Road Sign" transform="translate(0.191 0.191)" clip-path="url(#clip-path)">
    <g id="Group_14" data-name="Group 14" transform="translate(-0.018 1.983)">
      <path id="Path_136" data-name="Path 136" d="M32.486,24.928H15.168a6.509,6.509,0,0,0-5.637,3.255l-8.659,15a6.509,6.509,0,0,0,0,6.509l8.659,15a6.509,6.509,0,0,0,5.637,3.255H32.486a6.509,6.509,0,0,0,5.637-3.255l8.659-15a6.509,6.509,0,0,0,0-6.509l-8.659-15A6.509,6.509,0,0,0,32.486,24.928Z" transform="translate(0 -24.928)" fill="#efe7e4"/>
      <path id="Path_137" data-name="Path 137" d="M52.55,101.478a2.681,2.681,0,0,1-2.316-1.337l-8.659-15a2.681,2.681,0,0,1,0-2.674l8.659-15a2.681,2.681,0,0,1,2.316-1.337H69.868a2.681,2.681,0,0,1,2.315,1.337l8.659,15a2.681,2.681,0,0,1,0,2.674l-8.659,15a2.681,2.681,0,0,1-2.315,1.337H52.55Z" transform="translate(-37.382 -62.3)" fill="#da4a54"/>
      <path id="Path_138" data-name="Path 138" d="M181.831,132.871a8.748,8.748,0,0,0-.535,3.144s-.04,8.35-6.071,8.35H169.8c-4.451,0-6.965-4.555-6.965-8.474v-8.7a1.823,1.823,0,1,1,3.645,0V123.5a1.823,1.823,0,1,1,3.645,0v-2.842a1.823,1.823,0,1,1,3.645,0v2.3a1.822,1.822,0,0,1,3.645,0v9.777c.039-.134.081-.266.125-.4a9.057,9.057,0,0,1,.654-1.474,2.079,2.079,0,0,1,2.826-.812l0,0A2.08,2.08,0,0,1,181.831,132.871Z" transform="translate(-147.677 -110.091)" fill="#f1d0a5"/>
      <g id="Group_13" data-name="Group 13" transform="translate(15.156 8.74)">
        <path id="Path_139" data-name="Path 139" d="M202.679,132.972a.682.682,0,0,1-.682-.682v-8.8a1.822,1.822,0,0,1,2.5-1.69,1.822,1.822,0,0,0-1.141,1.69v8.8A.682.682,0,0,1,202.679,132.972Zm3.645-.131a.682.682,0,0,1-.682-.682V120.651a1.822,1.822,0,0,1,2.5-1.69,1.822,1.822,0,0,0-1.141,1.69v11.509A.682.682,0,0,1,206.324,132.841Zm3.645-.8a.682.682,0,0,1-.682-.682v-8.41a1.822,1.822,0,0,1,2.5-1.69,1.822,1.822,0,0,0-1.141,1.69v8.41a.682.682,0,0,1-.682.682Z" transform="translate(-198.352 -118.828)" fill="#f1b986"/>
        <path id="Path_140" data-name="Path 140" d="M202.679,160.664a.682.682,0,0,1-.682-.682v-8.8a1.822,1.822,0,0,1,2.5-1.69,1.822,1.822,0,0,0-1.141,1.69v8.8A.682.682,0,0,1,202.679,160.664Z" transform="translate(-198.352 -146.52)" fill="#f1b986"/>
        <path id="Path_141" data-name="Path 141" d="M171.161,208.02H169.8c-4.451,0-6.965-4.555-6.965-8.474v-8.7a1.822,1.822,0,0,1,2.5-1.69,1.822,1.822,0,0,0-1.141,1.69v8.7C164.2,203.464,166.71,208.02,171.161,208.02Zm7.032-13.512a9.054,9.054,0,0,0-.655,1.474c-.041.152-.083.286-.125.4a6.43,6.43,0,0,0-.349,2.574h0a4.8,4.8,0,0,0-4.757,4.157.63.63,0,0,0,1.217.292,4.887,4.887,0,0,1,5.244-3.328c-.957-2.822,1.256-6.853,2.252-6.381a2.08,2.08,0,0,0-2.826.812Z" transform="translate(-162.833 -182.485)" fill="#f1b986"/>
      </g>
    </g>
  </g>
</svg>
